<svg width="27" height="27" viewBox="0 0 27 27" fill="none" xmlns="http://www.w3.org/2000/svg">
<path d="M2.04851 6.75002C9.67167 6.75002 17.3284 6.75002 24.9516 6.75002C26.1269 6.75002 26.9665 5.91046 26.9665 4.73509C26.9665 3.86195 26.9665 3.0224 26.9665 2.14926C26.9665 0.805973 26.1605 0 24.7836 0C21.0224 0 17.2277 0 13.4665 0C9.67167 0 5.8433 0 2.04851 0C0.839554 0 0 0.839554 0 2.04851C0 2.92165 0 3.79479 0 4.66792C0.0335822 5.91046 0.839554 6.75002 2.04851 6.75002Z" fill="white"/>
<path d="M23.6418 10.1083C21.7612 10.1083 20.25 11.5859 20.25 13.4665C20.25 15.3471 21.7612 16.8583 23.6082 16.8583C25.4888 16.8583 27 15.3471 27 13.5001C27 11.6531 25.4888 10.1419 23.6418 10.1083Z" fill="white"/>
<path d="M23.6418 20.25C21.7612 20.25 20.25 21.7612 20.25 23.6082C20.25 25.4888 21.7612 27 23.6082 27C25.4888 27 27 25.4888 27 23.6418C27 21.7612 25.4888 20.25 23.6418 20.25Z" fill="white"/>
<path d="M17.026 11.25C14.373 11.25 11.6865 11.25 9.03346 11.25C7.05211 11.25 5.07077 11.25 3.08942 11.25C2.35061 11.25 1.57822 11.25 0.839411 11.25C0.369261 11.25 0.100603 11.5522 0.0334384 11.9888C-0.000143822 12.459 0.234932 12.7612 0.6715 12.8619C0.872993 12.9291 1.07449 12.8955 1.30956 12.8955C6.07823 12.8955 10.8469 12.8955 15.6156 12.8955C16.0857 12.8955 16.5559 12.9627 17.026 12.8619C17.3283 12.8284 17.6977 12.6605 17.8656 12.4254C18.2686 11.9216 17.7984 11.25 17.026 11.25Z" fill="white"/>
<path d="M0.705225 16.2874C0.873136 16.321 1.04105 16.321 1.24254 16.321C6.44778 16.321 11.653 16.321 16.8582 16.321C17.0933 16.321 17.3956 16.3546 17.4963 16.2202C17.7314 15.9852 17.9665 15.6829 17.9665 15.3807C18 15.0113 17.6978 14.709 17.2612 14.6419C17.0933 14.6083 16.9254 14.6419 16.7239 14.6419C14.1381 14.6419 11.5523 14.6419 9.00002 14.6419C6.44778 14.6419 3.89553 14.6419 1.3097 14.6419C1.14179 14.6419 0.973883 14.6419 0.77239 14.6419C0.302239 14.6755 0.0335822 14.9441 0 15.4143C0 15.8508 0.268657 16.1531 0.705225 16.2874Z" fill="white"/>
<path d="M16.9254 21.3919C14.2724 21.3583 11.6194 21.3919 8.96644 21.3919C7.153 21.3919 5.33957 21.3919 3.55971 21.3919C2.65299 21.3919 1.77985 21.3919 0.873136 21.3919C0.369403 21.3919 0.0335822 21.7277 0 22.1979C0 22.6344 0.302239 23.0038 0.805972 23.071C0.9403 23.1046 1.07463 23.071 1.24254 23.071C6.4142 23.071 11.5859 23.071 16.7575 23.071C16.9926 23.071 17.2277 23.071 17.4291 23.0038C18 22.8023 18.2015 22.0971 17.765 21.6941C17.5971 21.4926 17.2277 21.3919 16.9254 21.3919Z" fill="white"/>
<path d="M8.85924 24.244C11.4377 24.244 14.0492 24.244 16.6276 24.244C16.8921 24.244 17.1896 24.2812 17.3549 24.4296C17.5532 24.6153 17.7185 25.0236 17.6854 25.2463C17.6524 25.5433 17.3879 25.8032 17.1565 25.9888C16.9912 26.1002 16.7268 26.063 16.4954 26.063C11.4046 26.063 6.34692 26.063 1.25616 26.063C1.12393 26.063 1.02476 26.063 0.892536 26.063C0.363626 26.0259 0.0330569 25.6547 0 25.135C0 24.5781 0.330568 24.2069 0.925592 24.2069C3.6032 24.244 6.21469 24.244 8.85924 24.244Z" fill="white"/>
</svg>
