<svg width="26" height="31" viewBox="0 0 26 31" fill="none" xmlns="http://www.w3.org/2000/svg">
<path d="M25.4672 3.53349C25.4023 1.56617 23.7593 0.00960839 21.7919 0.00960839C16.2359 -0.0120105 10.6798 0.00960839 5.12379 0.00960839C4.28065 0.00960839 3.52399 0.290655 2.85381 0.831127C1.23239 2.10664 1.34048 3.85777 1.44858 5.67376C2.14038 5.67376 2.76733 5.65214 3.4159 5.67376C4.47522 5.69538 5.2535 6.23585 5.55617 7.12222C6.03178 8.52745 5.03731 9.86782 3.43752 9.93268C2.78895 9.9543 2.14038 9.93268 1.44858 9.93268C1.44858 11.0569 1.44858 12.1162 1.44858 13.2187C2.09714 13.2187 2.72409 13.2187 3.32942 13.2187C4.04284 13.2187 4.66979 13.4133 5.14541 13.9754C5.68588 14.624 5.83721 15.3806 5.49131 16.1589C5.10217 17.0453 4.38875 17.4344 3.45913 17.4777C2.81057 17.4993 2.14038 17.4777 1.4702 17.4777C1.4702 18.6018 1.4702 19.6612 1.4702 20.7637C2.09715 20.7637 2.68086 20.7421 3.26456 20.7637C3.63209 20.7854 4.02123 20.8286 4.36713 20.9583C5.2535 21.3042 5.79397 22.2771 5.66426 23.1634C5.49131 24.2444 4.71303 24.9362 3.54561 25.001C2.87542 25.0443 2.18362 25.001 1.42696 25.001C1.42696 25.7361 1.38372 26.363 1.42696 27.0116C1.57829 29.2167 3.13485 30.6652 5.3616 30.6652C10.7447 30.6652 16.1494 30.6652 21.5325 30.6652C21.8136 30.6652 22.0946 30.6652 22.3757 30.6003C24.3214 30.2112 25.4888 28.7627 25.4888 26.6441C25.4888 20.2449 25.4888 13.8673 25.4888 7.46812C25.4888 6.17099 25.5104 4.85224 25.4672 3.53349ZM14.1605 7.5546C16.171 7.5546 17.7925 9.17602 17.7925 11.2298C17.7925 13.2187 16.1494 14.8402 14.1605 14.8402C12.1499 14.8402 10.5069 13.1755 10.5285 11.165C10.5501 9.17602 12.1715 7.5546 14.1605 7.5546ZM19.8246 21.6717C16.0197 21.6717 12.3013 21.6717 8.56119 21.6717C8.4531 20.0287 8.43148 18.4505 9.75023 17.1966C10.5285 16.4616 11.4365 16.0724 12.4958 16.0508C13.62 16.0292 14.7226 16.0292 15.8468 16.0508C18.0519 16.0724 19.803 17.8452 19.8462 20.0719C19.8246 20.5908 19.8246 21.1096 19.8246 21.6717Z" fill="white"/>
<path d="M1.16691 8.98142C1.96681 9.02466 2.76671 9.00304 3.56661 8.98142C4.25841 8.9598 4.73403 8.44095 4.73403 7.79238C4.73403 7.14382 4.2368 6.64658 3.54499 6.62496C3.17747 6.60335 2.78833 6.62496 2.42081 6.62496C2.03167 6.62496 1.62091 6.60335 1.23177 6.62496C0.518347 6.6682 0.0643509 7.1222 0.042732 7.79238C0.0211131 8.44095 0.47511 8.93818 1.16691 8.98142Z" fill="white"/>
<path d="M0.0214844 15.3589C0.0214844 16.0508 0.4971 16.5048 1.25376 16.5264C1.62128 16.548 1.96718 16.5264 2.3347 16.5264C2.72384 16.5264 3.09137 16.548 3.48051 16.5264C4.21555 16.5048 4.71278 16.0291 4.7344 15.3589C4.7344 14.6888 4.23717 14.1699 3.52374 14.1483C2.76708 14.1267 2.01042 14.1267 1.25376 14.1483C0.4971 14.1915 0.0214844 14.6671 0.0214844 15.3589Z" fill="white"/>
<path d="M2.33484 24.093C2.72398 24.093 3.13474 24.1146 3.52388 24.093C4.21568 24.0497 4.71292 23.5741 4.71292 22.9256C4.71292 22.277 4.2373 21.7581 3.5455 21.7365C2.7456 21.6933 1.9457 21.6933 1.1458 21.7365C0.432378 21.7581 0 22.277 0 22.9256C0 23.5958 0.475616 24.0497 1.16742 24.093C1.57818 24.1146 1.96732 24.093 2.33484 24.093Z" fill="white"/>
</svg>
