<svg width="28" height="33" viewBox="0 0 28 33" fill="none" xmlns="http://www.w3.org/2000/svg">
<path d="M19.6238 15.125V10.8639C17.2746 10.8639 12.6 12.375 8.4 17.875C10.5014 9.3665 15.7794 5.15625 19.6238 4.125V0L28 7.5625L19.6238 15.125ZM16.8 14.3385V28.4322C16.8 31.4792 13.3056 33 8.4084 33C3.5042 33 -0.00279832 31.4751 1.67544e-06 28.4322V8.25C1.67544e-06 6.732 1.253 5.5 2.8 5.5H12.1436C10.6456 6.941 9.2302 8.76562 8.0402 11H2.8V24.75H14V16.0669C14.9954 15.2831 15.9474 14.7208 16.8 14.3385ZM9.8 28.875C9.8 28.116 9.1742 27.5 8.4 27.5C7.6258 27.5 7 28.116 7 28.875C7 29.634 7.6258 30.25 8.4 30.25C9.1742 30.25 9.8 29.634 9.8 28.875Z" fill="white"/>
</svg>
