<svg width="29" height="24" viewBox="0 0 29 24" fill="none" xmlns="http://www.w3.org/2000/svg">
<path d="M24.3779 9.2653C23.954 9.10106 23.7978 8.84297 23.7308 8.39717C23.106 3.89229 19.692 0.490172 15.3408 0.0443772C11.2128 -0.377955 7.26321 2.24989 5.79049 6.40282C5.6343 6.82516 5.43347 7.08325 5.00951 7.29441C1.39467 8.93682 -0.613579 12.9959 0.167406 17.0315C0.94839 21.0671 4.36241 23.9765 8.31196 24C10.5433 24 12.7524 24 14.9838 24C17.2375 24 19.5135 24 21.7672 24C25.2035 24 28.2605 21.3487 28.863 17.8527C29.5324 14.0752 27.7027 10.5792 24.3779 9.2653ZM19.3127 15.0372C17.9962 16.4449 16.6796 17.8293 15.3408 19.2136C14.8053 19.7532 14.2698 19.7767 13.7565 19.237C12.3954 17.8293 11.0566 16.4215 9.74004 15.0137C9.40533 14.6618 9.20451 14.216 9.49459 13.7936C9.71773 13.4886 10.1417 13.1836 10.4987 13.1367C11.1235 13.0194 11.7706 13.1132 12.4846 13.1132C12.4846 11.635 12.4846 10.2742 12.4846 8.91336C12.4846 7.55251 13.3772 6.56706 14.5821 6.56706C15.7425 6.59052 16.6127 7.5525 16.635 8.88989C16.635 10.2273 16.635 11.5647 16.6573 12.9021C16.6573 12.949 16.6796 12.9724 16.7243 13.1132C17.3044 13.1132 17.9292 13.1132 18.554 13.1132C19.0449 13.1132 19.4466 13.2774 19.6474 13.7702C19.8259 14.2629 19.6474 14.6618 19.3127 15.0372Z" fill="white"/>
</svg>
