<svg width="29" height="29" viewBox="0 0 29 29" fill="none" xmlns="http://www.w3.org/2000/svg">
<path d="M14.5102 0C6.52147 0 4.77836e-05 6.48067 4.77836e-05 14.449C-0.0203317 22.4582 6.48071 29 14.4491 29C22.4582 29.0203 28.9796 22.5193 29 14.5305C29 6.52142 22.5193 0.0203794 14.5102 0ZM22.7028 10.5769C22.6009 10.6992 22.4786 10.8215 22.3563 10.9438C19.442 13.8376 16.5482 16.7112 13.6339 19.605C12.6761 20.5425 12.0647 20.5629 11.0661 19.6662C9.57839 18.3211 8.09069 16.9965 6.64375 15.6107C6.37881 15.3457 6.13426 14.9789 6.03236 14.6324C5.86933 14.0414 6.15464 13.4708 6.66413 13.1855C7.19399 12.8594 7.82576 12.9002 8.33524 13.3485C9.45611 14.3471 10.577 15.3865 11.6775 16.4055C11.8609 16.5685 12.0443 16.7315 12.2685 16.9353C15.0197 14.1841 17.7098 11.494 20.3999 8.78355C20.8482 8.3352 21.3577 8.04989 22.0302 8.27406C22.9881 8.60014 23.3345 9.76176 22.7028 10.5769Z" fill="white"/>
</svg>
