<svg width="29" height="29" viewBox="0 0 29 29" fill="none" xmlns="http://www.w3.org/2000/svg">
<path d="M14.4931 0C6.49644 0 0 6.4796 0 14.445C0 22.4791 6.45515 28.9862 14.4518 29C22.5173 29 29 22.5342 29 14.5C29 6.4796 22.5173 0 14.4931 0ZM14.0389 21.2823C13.2682 21.2685 12.6213 20.5806 12.6213 19.8102C12.6213 19.0261 13.2682 18.3658 14.0527 18.352C14.8647 18.3382 15.5254 19.0123 15.5254 19.824C15.5116 20.6357 14.8372 21.3098 14.0389 21.2823ZM18.0441 11.6798C17.6312 12.4502 16.9981 13.1518 16.3374 13.7434C15.608 14.4037 15.1125 15.0778 15.1675 16.1096C15.2088 16.7287 14.8923 16.9763 14.1903 17.0038C13.392 17.0313 13.0892 16.825 13.0204 16.1784C12.8965 14.7476 13.3094 13.5508 14.4931 12.6565C14.906 12.3401 15.3327 11.9962 15.6493 11.5835C16.3237 10.6893 15.9521 9.74004 14.8647 9.4649C13.8875 9.21727 13.103 9.49241 12.4974 10.3178C12.0707 10.8956 11.6991 11.0057 11.1486 10.7306C10.6531 10.4829 10.4604 9.98767 10.6118 9.39611C10.8595 8.5019 11.4926 7.93786 12.3047 7.62144C12.9516 7.37381 13.6398 7.29127 14.3142 7.13994C15.2226 7.22249 16.0622 7.40133 16.8329 7.85531C18.2644 8.66698 18.8149 10.2491 18.0441 11.6798Z" fill="white"/>
</svg>
