<svg width="52" height="57" viewBox="0 0 52 57" fill="none" xmlns="http://www.w3.org/2000/svg">
<path d="M49.651 5.27741C46.0944 -0.138352 38.9407 -1.59333 33.4845 1.88246C32.9995 2.20579 32.3125 2.40787 31.7466 2.40787C22.8147 2.44828 13.8827 2.40787 4.95073 2.44828C2.40451 2.44828 0.747447 4.06493 0.707031 6.61115C0.707031 20.0293 0.707031 33.4475 0.707031 46.8656C0.707031 49.331 2.40449 50.9477 4.82946 50.9881C5.9207 50.9881 7.05235 50.9881 8.26483 50.9881C8.26483 51.756 8.22442 52.4027 8.26483 53.0897C8.34567 55.2722 10.0027 56.9697 12.1852 56.9697C21.9255 57.0101 31.6658 57.0101 41.4465 56.9697C43.5886 56.9697 45.3669 55.353 45.4073 53.211C45.4881 48.0377 45.4477 42.824 45.4477 37.6508C45.4477 37.4891 45.4477 37.287 45.3669 37.2062C45.0032 36.9233 44.599 36.4787 44.1948 36.4787C43.8715 36.4787 43.4673 37.0041 43.2653 37.3679C43.1036 37.6103 43.2248 38.0145 43.2248 38.3378C43.2248 43.0261 43.2248 47.674 43.2248 52.3622C43.2248 54.1406 42.6186 54.7468 40.7998 54.7468C34.4949 54.7468 28.19 54.7468 21.8851 54.7468C18.773 54.7468 15.661 54.7468 12.549 54.7468C11.3769 54.7468 10.6494 54.2214 10.5282 53.2514C10.4473 52.5239 10.5282 51.7964 10.5282 50.9881C11.0536 50.9881 11.4577 50.9881 11.8619 50.9881C18.9347 50.9881 26.0075 50.9881 33.1208 50.9881C36.3541 50.9881 37.8899 49.4523 37.8899 46.219C37.8899 38.9845 37.8899 31.75 37.8899 24.5155C37.8899 24.1113 37.8899 23.7072 37.8899 23.4243C39.7086 23.303 41.4061 23.2222 43.2248 23.1009C43.2248 24.3943 43.2248 25.7684 43.2248 27.1426C43.2248 27.9105 43.4673 28.5167 44.3161 28.5167C45.1648 28.5167 45.4477 27.9509 45.4477 27.183C45.4477 25.8492 45.4881 24.5155 45.4477 23.1818C45.4073 22.3735 45.6498 21.8885 46.3773 21.4035C51.7122 17.766 53.1672 10.6123 49.651 5.27741ZM35.6266 46.6231C35.6266 48.0781 34.9395 48.7652 33.5249 48.7652C24.0271 48.7652 14.5294 48.7652 5.07197 48.7652C3.57657 48.7652 2.92992 48.159 2.92992 46.704C2.92992 33.4071 2.92992 20.1101 2.92992 6.77281C2.92992 5.39866 3.53614 4.71159 4.82946 4.71159C13.1956 4.71159 21.6022 4.71159 29.9683 4.71159C30.0492 4.71159 30.1704 4.752 30.3321 4.79242C29.8067 5.88366 29.2408 6.85364 28.8771 7.86405C28.5133 8.91487 28.3517 10.0061 28.0688 11.2186C27.705 11.2186 27.3009 11.2186 26.8967 11.2186C21.3193 11.2186 15.7014 11.2186 10.124 11.2186C8.42651 11.2186 8.14359 11.5015 8.14359 13.2394C8.14359 14.4115 8.14359 15.624 8.14359 16.796C8.14359 17.7256 8.58818 18.1702 9.51775 18.1702C16.1056 18.1702 22.6934 18.1702 29.3217 18.1702C29.7258 18.1702 30.2512 18.3723 30.4533 18.6552C31.7062 20.2314 33.2016 21.4439 34.9799 22.333C35.3033 22.4947 35.667 23.0201 35.667 23.3839C35.667 31.1033 35.667 38.8632 35.6266 46.6231ZM28.0688 13.4819C28.0688 14.2094 28.0688 14.9773 28.0688 15.7856C22.2084 15.7856 16.3481 15.7856 10.4069 15.7856C10.4069 14.9773 10.4069 14.2902 10.4069 13.4819C16.2673 13.4819 22.1276 13.4819 28.0688 13.4819ZM39.8299 21.1206C34.6162 21.1206 30.3321 16.796 30.4129 11.6228C30.4533 6.44948 34.697 2.2462 39.8703 2.2462C45.1244 2.2462 49.3277 6.44948 49.3277 11.7036C49.2873 16.9577 45.084 21.161 39.8299 21.1206Z" fill="#035596"/>
<path d="M43.3047 32.4372C43.3047 32.8817 43.8301 33.2859 44.113 33.6901C44.2747 33.6901 44.4363 33.6901 44.598 33.6901C44.8809 33.2455 45.4063 32.7605 45.3659 32.3563C45.2851 31.9522 44.6788 31.4672 44.2343 31.3864C43.9513 31.3864 43.3047 32.0734 43.3047 32.4372Z" fill="#035596"/>
<path d="M9.72101 24.2325C16.1068 24.2325 22.4521 24.2325 28.8379 24.2325C29.6462 24.2325 30.3737 24.0709 30.3737 23.1009C30.3737 22.0905 29.6058 22.0096 28.7974 22.0096C25.645 22.0096 22.4925 22.0096 19.3401 22.0096C16.1068 22.0096 12.9139 22.0096 9.68058 22.0096C8.87226 22.0096 8.1852 22.2117 8.1852 23.1009C8.14478 24.0305 8.87227 24.2325 9.72101 24.2325Z" fill="#035596"/>
<path d="M28.7164 37.8529C22.4115 37.8125 16.147 37.8125 9.84204 37.8125C8.9933 37.8125 8.14457 37.9337 8.18498 38.9442C8.2254 39.995 9.07412 40.0354 9.88244 40.0354C12.9945 40.0354 16.1065 40.0354 19.2186 40.0354C22.4519 40.0354 25.6447 40.0354 28.878 40.0354C30.0097 40.0354 30.7372 39.2675 30.2522 38.54C30.0097 38.1358 29.2418 37.8529 28.7164 37.8529Z" fill="#035596"/>
<path d="M9.76057 34.7407C12.9534 34.7407 16.1463 34.7407 19.2988 34.7407C22.4917 34.7407 25.6845 34.7407 28.837 34.7407C29.6049 34.7407 30.3324 34.6195 30.3324 33.6899C30.3728 32.6795 29.6453 32.5178 28.7966 32.5178C22.4108 32.5178 16.0655 32.5178 9.67973 32.5178C8.87141 32.5178 8.10352 32.7199 8.10352 33.6495C8.18435 34.6195 8.95225 34.7407 9.76057 34.7407Z" fill="#035596"/>
<path d="M9.72101 29.4868C9.84226 29.4868 9.92309 29.4868 10.0443 29.4868C16.1876 29.4868 22.3308 29.4868 28.4741 29.4868C28.8378 29.4868 29.2824 29.5676 29.5653 29.3655C29.9291 29.123 30.3333 28.6784 30.3333 28.3147C30.3333 27.9509 29.8887 27.5468 29.5249 27.3043C29.242 27.1426 28.7974 27.2235 28.4337 27.2235C25.4025 27.2235 22.3713 27.2235 19.3401 27.2235C18.6934 27.2235 18.0063 27.2235 17.3597 27.2235C14.8134 27.2235 12.2672 27.2235 9.68058 27.2235C8.91267 27.2235 8.1852 27.3851 8.1852 28.3147C8.14478 29.3251 8.87227 29.5272 9.72101 29.4868Z" fill="#035596"/>
<path d="M39.8282 9.15743C39.0603 9.15743 38.7773 9.72326 38.7773 10.4507C38.7773 11.6228 38.7773 12.8353 38.7773 14.0074C38.7773 15.1794 38.7773 16.3919 38.7773 17.564C38.7773 18.3319 39.0198 18.9381 39.8686 18.9381C40.7173 18.9381 41.0002 18.3723 41.0002 17.6044C41.0002 15.2199 41.0002 12.8757 41.0002 10.4912C41.0002 9.68284 40.6769 9.11701 39.8282 9.15743Z" fill="#035596"/>
<path d="M39.7884 5.60074C39.1013 5.51991 38.6567 6.08573 38.8184 6.73239C38.9397 7.13656 39.5055 7.70238 39.8692 7.70238C40.3138 7.70238 40.718 7.17697 41.1221 6.85364C41.1221 6.69198 41.1221 6.53031 41.1221 6.36865C40.6776 6.08573 40.2734 5.64116 39.7884 5.60074Z" fill="#035596"/>
</svg>
