<svg width="49" height="39" viewBox="0 0 49 39" fill="none" xmlns="http://www.w3.org/2000/svg">
<path d="M40.6702 0C29.6544 0 18.5969 0 7.58114 0C2.89004 0 0 2.8178 0 7.39162C0 15.4366 0 23.5225 0 31.5675C0 36.1414 2.89004 38.9592 7.58114 39C13.1099 39 18.6387 39 24.1675 39C29.6963 39 35.2251 39 40.7539 39C45.4031 39 48.2932 36.1822 48.2932 31.6901C48.2932 23.6042 48.2932 15.5183 48.2932 7.43246C48.2932 2.8178 45.3613 0 40.6702 0ZM45.4869 12.7005C42.0105 12.7005 38.6178 12.6597 35.267 12.7005C31.8743 12.7414 29.0262 15.0691 28.4398 18.2136C27.644 22.3791 30.8272 26.177 35.1833 26.2586C38.2408 26.2995 41.2984 26.2586 44.3141 26.2586C44.6492 26.2586 44.9843 26.2586 45.4031 26.2586C45.4031 28.5456 45.5288 30.7508 45.3613 32.9152C45.2356 34.6712 43.5183 36.0188 41.6754 36.1822C41.3403 36.223 40.9634 36.223 40.6283 36.223C29.6126 36.223 18.5968 36.1822 7.62302 36.2639C4.9005 36.2639 2.7225 34.5895 2.76439 31.4859C2.84816 23.4817 2.80626 15.4775 2.80626 7.4733C2.80626 4.28796 4.3979 2.73612 7.66492 2.73612C18.6806 2.73612 29.6544 2.73612 40.6702 2.73612C43.8534 2.73612 45.4869 4.28796 45.4869 7.43246C45.4869 9.14764 45.4869 10.8628 45.4869 12.7005ZM45.4031 15.4775C45.4031 18.1728 45.4031 20.8272 45.4031 23.5634C43.8953 23.5634 42.4293 23.5634 40.9634 23.5634C39.1204 23.5634 37.2775 23.5634 35.3927 23.5634C32.9215 23.5225 31.0785 21.8073 31.0785 19.5204C31.0785 17.2335 32.9215 15.4775 35.3927 15.4775C38.534 15.4367 41.6754 15.4775 44.8168 15.4775C45.0262 15.4367 45.1937 15.4775 45.4031 15.4775Z" fill="#035596"/>
<path d="M37.1503 18.1728C36.4801 18.1319 35.8519 18.1319 35.1817 18.1728C34.3859 18.2136 33.9252 18.6628 33.8833 19.4796C33.8414 20.2555 34.344 20.7864 35.2236 20.8272C35.5168 20.8681 35.8519 20.8272 36.1451 20.8272C36.4802 20.8272 36.8152 20.8681 37.1922 20.8272C37.988 20.7456 38.4487 20.3372 38.4906 19.5204C38.5325 18.7445 38.0299 18.2136 37.1503 18.1728Z" fill="#035596"/>
</svg>
