<svg width="55" height="57" viewBox="0 0 55 57" fill="none" xmlns="http://www.w3.org/2000/svg">
<path d="M54.0449 6.24524C54.0449 3.33392 53.3663 2.58262 50.6071 2.58262C43.9577 2.58262 37.3083 2.58262 30.6589 2.58262C29.9804 2.58262 29.528 2.53566 29.3019 1.64349C29.0305 0.563481 28.1258 0 27.0402 0C25.9998 0 25.0951 0.516518 24.8237 1.54957C24.5523 2.53566 24.0547 2.53566 23.2857 2.53566C16.5911 2.53566 9.94171 2.53566 3.24708 2.53566C2.70427 2.53566 2.07099 2.53566 1.57341 2.72349C-0.371649 3.56871 0.0354458 5.44698 0.0354458 7.09047C0.0354458 8.64004 0.533037 9.67308 1.66389 9.95482C2.43287 10.1426 2.52332 10.5653 2.52332 11.2696C2.52332 20.8018 2.52332 30.334 2.52332 39.8193C2.52332 42.4019 3.2923 43.2472 5.78017 43.2472C12.0225 43.2472 18.2195 43.2472 24.4618 43.2472C24.8689 43.2472 25.276 43.2472 25.7736 43.2472C25.7736 43.8576 25.7284 44.3272 25.7736 44.7967C25.9545 46.0646 25.457 46.9567 24.5523 47.8489C22.6525 49.6802 20.8431 51.6524 19.0337 53.5776C18.4457 54.1881 18.0386 54.8455 18.7171 55.6437C19.2599 56.3011 19.9837 56.1603 20.7979 55.315C22.0644 54.0472 23.2857 52.7324 24.5071 51.4176C25.3213 50.5724 26.045 49.6333 26.8592 48.6941C29.1661 51.0889 31.1565 53.202 33.2372 55.315C34.0514 56.1603 34.7752 56.2542 35.318 55.5968C35.9965 54.7985 35.5894 54.1411 35.0013 53.5307C33.2372 51.6994 31.5636 49.7272 29.6637 48.0837C28.0805 46.722 28.2163 45.1254 28.352 43.3411C28.6686 43.2941 28.94 43.2941 29.2114 43.2941C35.5441 43.2941 41.8769 43.2941 48.2097 43.2941C50.788 43.2941 51.557 42.4958 51.557 39.8663C51.557 30.3341 51.557 20.8018 51.557 11.3166C51.557 10.7061 51.557 10.2366 52.326 10.0957C53.2759 9.90787 53.8187 9.1096 53.9544 8.17047C54.0901 7.51308 54.0449 6.90264 54.0449 6.24524ZM49.0691 40.7115C34.3228 40.7115 19.7123 40.7115 5.05644 40.7115C5.05644 30.5688 5.05644 20.4731 5.05644 10.3305C19.7575 10.3305 34.3681 10.3305 49.0691 10.3305C49.0691 20.4731 49.0691 30.5688 49.0691 40.7115ZM51.4665 7.60698C35.2275 7.60698 18.9885 7.60698 2.61379 7.60698C2.61379 6.76176 2.61379 6.01046 2.61379 5.16524C18.898 5.16524 35.137 5.16524 51.4665 5.16524C51.4665 6.01046 51.4665 6.76176 51.4665 7.60698Z" fill="#035596"/>
<path d="M9.94198 30.2871C9.94198 32.1654 10.8467 33.1515 12.656 33.1515C15.7319 33.1515 18.8531 33.1515 21.929 33.1515C23.6479 33.1515 24.5978 32.1653 24.5978 30.381C24.5978 26.2958 24.643 22.2105 24.5978 18.1253C24.5978 16.294 23.6479 15.4018 21.8837 15.4018C18.8078 15.4018 15.6867 15.4018 12.6108 15.4018C10.8466 15.4018 9.94198 16.3409 9.94198 18.1722C9.89674 20.1914 9.94198 22.2575 9.94198 24.2766C9.94198 26.2488 9.89674 28.2679 9.94198 30.2871ZM12.4298 17.9375C15.6867 17.9375 18.8983 17.9375 22.1099 17.9375C22.1099 22.1166 22.1099 26.2958 22.1099 30.5219C18.8983 30.5219 15.6867 30.5219 12.4298 30.5219C12.4298 26.2958 12.4298 22.1636 12.4298 17.9375Z" fill="#035596"/>
<path d="M31.2027 22.9619C35.0023 22.9619 38.802 22.9619 42.6016 22.9619C43.4158 22.9619 44.1848 22.774 44.2301 21.694C44.2753 20.8488 43.6873 20.4262 42.6016 20.4262C40.7018 20.4262 38.802 20.4262 36.9021 20.4262C35.0023 20.4262 33.1025 20.4262 31.2027 20.4262C30.117 20.4262 29.5742 20.8488 29.5742 21.694C29.6195 22.774 30.3432 22.9619 31.2027 22.9619Z" fill="#035596"/>
<path d="M31.1581 33.1044C33.0579 33.1044 34.9577 33.1044 36.8576 33.1044C38.7574 33.1044 40.6572 33.1044 42.557 33.1044C43.4165 33.1044 44.1403 32.9166 44.1855 31.8366C44.1855 30.7566 43.4165 30.5688 42.6023 30.5688C38.8026 30.5688 35.003 30.5688 31.2033 30.5688C30.3891 30.5688 29.6201 30.7566 29.5749 31.8366C29.5296 32.6818 30.0725 33.1044 31.1581 33.1044Z" fill="#035596"/>
<path d="M31.0199 17.8435C32.1508 17.8435 33.2816 17.8435 34.4125 17.8435C35.5886 17.8435 36.7194 17.8435 37.8955 17.8435C38.7097 17.8435 39.2978 17.5148 39.343 16.6226C39.343 15.7304 38.7549 15.3547 37.9407 15.3547C35.6338 15.3547 33.2816 15.3547 30.9747 15.3547C30.1605 15.3547 29.5724 15.7304 29.6177 16.6226C29.5724 17.5617 30.2057 17.8435 31.0199 17.8435Z" fill="#035596"/>
<path d="M30.7955 25.4975C30.117 25.4975 29.5742 25.9201 29.5742 26.7184C29.5742 27.5636 30.0718 27.9862 30.8408 28.0332C31.6098 28.0801 32.3787 28.0332 33.1477 28.0332C33.9619 28.0332 34.7761 28.0801 35.5451 28.0332C36.3141 27.9862 36.8117 27.6106 36.8117 26.7653C36.8117 25.9671 36.3141 25.5445 35.6356 25.4975C34.0072 25.4505 32.424 25.4505 30.7955 25.4975Z" fill="#035596"/>
</svg>
