<svg width="49" height="49" viewBox="0 0 49 49" fill="none" xmlns="http://www.w3.org/2000/svg">
<path d="M24.1398 0C10.8752 0 0.0695989 10.7371 0.000332219 24.0025C-0.0689344 37.3026 10.702 48.1782 24.0359 48.2129C37.3351 48.2475 48.1753 37.4758 48.2099 24.1411C48.2445 10.841 37.439 0.0346357 24.1398 0ZM24.0705 45.9962C11.9488 45.9615 2.18224 36.1943 2.21687 24.0718C2.25151 11.9493 12.0181 2.18203 24.1398 2.21667C36.2614 2.25131 46.028 12.0186 45.9934 24.1411C45.9587 36.2982 36.1922 46.0308 24.0705 45.9962Z" fill="#035596"/>
<path d="M26.9463 33.943C25.8727 33.9083 25.3878 33.3888 25.561 32.2805C25.7342 31.1375 26.0459 30.0291 26.2883 28.8862C26.6693 27.189 27.258 25.4919 27.4658 23.7947C27.7083 21.5434 26.3229 20.1233 24.0718 20.1926C22.7557 20.2272 21.4396 20.6775 20.1236 20.9546C19.2231 21.1278 18.669 21.6473 18.7382 22.7557C19.0153 22.6864 19.2578 22.6171 19.4656 22.5478C21.7514 21.9244 22.6518 22.7557 22.1669 25.0416C22.1323 25.1801 22.0977 25.2841 22.0631 25.388C21.5089 27.3968 20.8855 29.4057 20.4353 31.4492C19.7773 34.3586 21.2665 36.2636 24.2449 36.0904C25.5956 36.0211 26.9117 35.5016 28.2278 35.1899C29.059 34.982 29.2321 34.4279 29.1282 33.7352C28.3663 33.8391 27.639 33.943 26.9463 33.943Z" fill="#035596"/>
<path d="M26.5305 12.0533C24.7989 12.0533 23.3789 13.3348 23.3789 14.8588C23.3789 16.3481 24.7989 17.6643 26.4266 17.6643C28.1237 17.6989 29.5436 16.3827 29.5436 14.8241C29.5783 13.3002 28.2276 12.0879 26.5305 12.0533Z" fill="#035596"/>
</svg>
