<svg width="45" height="57" viewBox="0 0 45 57" fill="none" xmlns="http://www.w3.org/2000/svg">
<path d="M44.0052 13.2199C44.0052 10.4043 42.257 8.13868 39.7003 7.56678C38.7825 7.36881 37.8209 7.4128 36.8813 7.39081C35.7231 7.36881 34.5868 7.39081 33.3631 7.39081C33.3631 6.8189 33.3631 6.42296 33.3631 6.00503C33.3631 4.35529 33.0353 4.02535 31.3745 4.00335C30.4349 3.98135 29.4734 4.04735 28.5337 3.98136C28.2278 3.95936 27.7907 3.6954 27.6596 3.40945C26.4359 1.03383 24.4473 0 21.8687 0C19.3557 0 17.4983 1.16581 16.2745 3.38745C16.0997 3.67341 15.6408 3.93737 15.2912 3.98136C14.286 4.06934 13.2589 3.98135 12.2319 4.02535C11.03 4.06934 10.6803 4.46528 10.6585 5.65308C10.6585 6.20299 10.6585 6.73091 10.6585 7.4128C8.95399 7.4128 7.35879 7.36881 5.76357 7.4128C2.33275 7.50078 0.0163893 9.85441 0.0163893 13.3079C-0.00546309 25.8458 -0.00546309 38.3838 0.0163893 50.9438C0.0163893 53.6713 1.58976 55.563 4.25575 56.1789C4.88947 56.3329 5.54505 56.3549 6.20062 56.3549C13.9582 56.3769 21.7158 56.3549 29.4734 56.3549C32.489 56.3549 35.5265 56.3989 38.5421 56.3329C41.7107 56.2889 43.9833 54.0673 43.9833 50.9438C44.027 38.3618 44.027 25.7798 44.0052 13.2199ZM13.4337 6.70892C14.3952 6.70892 15.3567 6.68692 16.2964 6.70892C17.389 6.75291 18.0446 6.35697 18.3724 5.21315C18.8531 3.56342 20.3828 2.4636 21.9343 2.4636C23.5077 2.4636 24.9936 3.56342 25.4525 5.25715C25.7585 6.33498 26.3922 6.75291 27.4411 6.70892C27.5066 6.70892 27.5941 6.70892 27.6596 6.70892C28.6211 6.77491 29.976 6.46695 30.4567 6.97287C30.9593 7.50078 30.6534 8.84257 30.6753 9.81042C30.6971 10.4923 30.6753 11.1962 30.6753 12.0101C24.8625 12.0101 19.1809 12.0101 13.4337 12.0101C13.4337 10.3383 13.4337 8.62261 13.4337 6.70892ZM41.3173 50.3939C41.3173 52.6815 40.3777 53.6493 38.0832 53.6713C27.3755 53.6713 16.6679 53.6713 5.96022 53.6713C3.66572 53.6713 2.72609 52.6815 2.72609 50.3939C2.72609 38.1858 2.72609 25.9558 2.72609 13.7478C2.72609 11.1082 3.73129 10.0964 6.35357 10.0964C7.73027 10.0964 9.12883 10.0964 10.6803 10.0964C10.6803 11.1742 10.6585 12.12 10.6803 13.0659C10.7022 14.2537 11.1829 14.7596 12.3411 14.7596C18.7876 14.7816 25.234 14.7816 31.6805 14.7596C32.8168 14.7596 33.3194 14.2097 33.3412 13.0439C33.3631 12.098 33.3412 11.1522 33.3412 10.1404C35.2642 10.1404 37.078 10.0744 38.8699 10.1624C40.1155 10.2283 41.1207 11.3942 41.2518 12.67C41.2955 13.0439 41.2736 13.3958 41.2736 13.7698C41.3173 25.9778 41.3173 38.1858 41.3173 50.3939Z" fill="#035596"/>
<path d="M20.7109 35.5463C20.995 35.5683 21.3009 35.5683 21.585 35.5683C23.7921 35.5683 26.021 35.5683 28.2281 35.5683C30.2604 35.5683 32.2927 35.5683 34.3249 35.5683C34.8712 35.5683 35.4176 35.5903 35.9639 35.5463C36.7506 35.4803 37.275 35.0623 37.2969 34.2265C37.3187 33.3906 36.7942 32.9727 36.0076 32.8627C35.6798 32.8187 35.352 32.8407 35.0242 32.8407C30.5445 32.8407 26.0866 32.8407 21.6069 32.8407C21.3228 32.8407 21.0169 32.8187 20.7328 32.8627C19.9024 32.9507 19.3342 33.3466 19.3561 34.2485C19.3998 35.0843 19.9461 35.4583 20.7109 35.5463Z" fill="#035596"/>
<path d="M35.592 22.1504C30.7845 22.1504 25.9988 22.1504 21.1913 22.1504C19.9239 22.1504 19.3557 22.6123 19.3776 23.5142C19.3994 24.416 19.9894 24.834 21.2569 24.834C23.5732 24.834 25.9114 24.834 28.2278 24.834C30.6971 24.834 33.1664 24.834 35.6357 24.834C36.488 24.834 37.1654 24.548 37.2965 23.6022C37.4276 22.7223 36.7721 22.1504 35.592 22.1504Z" fill="#035596"/>
<path d="M35.57 43.5969C33.1663 43.5969 30.7626 43.5969 28.3806 43.5969C25.955 43.5969 23.5076 43.5969 21.082 43.5969C19.9456 43.5969 19.3337 44.1028 19.3993 44.9827C19.4649 46.0165 20.1642 46.2805 21.082 46.2805C25.9113 46.2805 30.7407 46.2805 35.5919 46.2805C36.7719 46.2805 37.3401 45.8186 37.3401 44.9607C37.3183 44.0808 36.7282 43.5969 35.57 43.5969Z" fill="#035596"/>
<path d="M14.8531 30.0911C13.4983 31.3669 12.1653 32.6647 10.7449 34.0285C10.1767 33.4126 9.67414 32.8627 9.14969 32.3127C8.53782 31.6748 7.83853 31.4109 7.13925 32.0928C6.46183 32.7307 6.6148 33.4786 7.22667 34.1384C8.05706 35.0183 8.88745 35.8762 9.73969 36.734C10.3953 37.3939 11.0945 37.4159 11.7501 36.8C13.4546 35.1943 15.1372 33.5885 16.8199 31.9608C17.4099 31.3889 17.4754 30.751 16.9728 30.0911C16.4265 29.4092 15.5961 29.3872 14.8531 30.0911Z" fill="#035596"/>
<path d="M9.56492 25.8458C10.4172 26.7037 11.029 26.7037 11.9031 25.8898C13.4328 24.4381 14.9625 22.9643 16.4921 21.5125C17.3444 20.6987 17.4755 19.9728 16.9292 19.3349C16.3392 18.653 15.5306 18.719 14.6565 19.5329C13.3672 20.7647 12.0779 21.9965 10.745 23.2722C10.1768 22.6783 9.65233 22.1284 9.10602 21.5785C8.49416 20.9406 7.77304 20.7207 7.09562 21.3806C6.44005 22.0404 6.59301 22.7663 7.20488 23.4262C7.99156 24.2181 8.77823 25.054 9.56492 25.8458Z" fill="#035596"/>
<path d="M14.7234 40.9354C13.4341 42.1672 12.1448 43.399 10.8118 44.6968C10.1781 44.0809 9.63181 43.531 9.10735 43.003C8.51734 42.4091 7.81808 42.2112 7.18436 42.8051C6.50694 43.443 6.59434 44.1909 7.20621 44.8288C7.97104 45.6646 8.77956 46.4565 9.56625 47.2704C10.5059 48.2162 10.9867 48.2382 11.97 47.3144C13.5215 45.8626 15.0293 44.3888 16.559 42.9371C17.3894 42.1452 17.4987 41.3753 16.9087 40.7594C16.2749 40.0995 15.5538 40.1435 14.7234 40.9354Z" fill="#035596"/>
</svg>
