<svg width="29" height="30" viewBox="0 0 29 30" fill="none" xmlns="http://www.w3.org/2000/svg">
<path d="M28.7191 0.263385C28.365 -0.0907215 27.9519 -0.0317038 27.5092 0.115841C18.6271 3.00771 9.77441 5.92909 0.892232 8.82096C0.42009 8.96851 0.065983 9.17507 0.0069652 9.70623C-0.0520526 10.2079 0.272545 10.503 0.656161 10.739C3.93165 12.6276 7.20713 14.5457 10.4826 16.4638C11.0138 16.7589 11.4564 16.7589 11.9286 16.4047C12.6663 15.8441 13.4335 15.2834 14.1712 14.7227C14.2007 14.7522 14.2302 14.7818 14.2598 14.8113C13.6991 15.5785 13.1679 16.3457 12.5778 17.0834C12.2236 17.5556 12.1941 17.9982 12.4892 18.4999C14.4073 21.7754 16.3254 25.0804 18.2435 28.3854C18.4795 28.7985 18.7746 29.0936 19.2763 29.0345C19.7779 28.9755 20.014 28.6214 20.132 28.1788C23.0239 19.2966 25.9453 10.4144 28.8371 1.50276C29.0437 1.03062 29.1027 0.617492 28.7191 0.263385Z" fill="white"/>
<path d="M9.95182 20.3294C9.98133 20.0048 10.0994 19.6212 9.95182 19.3851C9.80427 19.1491 9.42066 18.9425 9.15508 18.9425C8.8895 18.9425 8.5649 19.1491 8.35834 19.3556C6.41075 21.3032 4.46317 23.2508 2.51558 25.1984C2.39754 25.3164 2.25 25.4049 2.22049 25.523C2.16147 25.8476 2.10246 26.2017 2.22049 26.4673C2.30902 26.7033 2.66312 26.8509 2.95821 27.087C3.28281 26.8804 3.5779 26.7328 3.78446 26.5263C5.76156 24.5492 7.73865 22.5721 9.71575 20.595C9.77476 20.536 9.92231 20.4475 9.95182 20.3294Z" fill="white"/>
<path d="M3.01607 20.6539C3.81281 19.8867 4.60955 19.09 5.37678 18.2932C5.55383 18.1162 5.64236 17.8506 5.81941 17.526C5.58334 17.2604 5.40629 16.9358 5.14071 16.7588C4.75709 16.5227 4.37348 16.6702 4.07839 16.9653C3.28165 17.7326 2.51442 18.5293 1.71768 19.326C1.27504 19.7687 1.27504 20.3293 1.65866 20.713C2.01277 21.0966 2.57343 21.0966 3.01607 20.6539Z" fill="white"/>
<path d="M11.7513 23.4278C11.3676 23.1918 10.984 23.3393 10.6889 23.6344C9.8922 24.4016 9.12497 25.1984 8.32823 25.9951C7.91511 26.4377 7.8856 26.9689 8.26921 27.3525C8.65283 27.7361 9.2135 27.7361 9.65613 27.2935C10.4234 26.5263 11.2201 25.759 11.9578 24.9623C12.1349 24.7557 12.2529 24.4902 12.43 24.1656C12.2234 23.9 12.0168 23.6049 11.7513 23.4278Z" fill="white"/>
</svg>
