<svg width="12" height="20" viewBox="0 0 12 20" fill="none" xmlns="http://www.w3.org/2000/svg">
<path d="M12 1.66667C12 0.746667 11.232 0 10.2857 0H1.71429C0.768 0 0 0.746667 0 1.66667V18.3333C0 19.2533 0.768 20 1.71429 20H10.2857C11.232 20 12 19.2533 12 18.3333V1.66667ZM4.71429 1.66667H7.28571C7.52229 1.66667 7.71429 1.85333 7.71429 2.08333C7.71429 2.31333 7.52229 2.5 7.28571 2.5H4.71429C4.47771 2.5 4.28571 2.31333 4.28571 2.08333C4.28571 1.85333 4.47771 1.66667 4.71429 1.66667ZM6 18.3333C5.526 18.3333 5.14286 17.96 5.14286 17.5C5.14286 17.04 5.526 16.6667 6 16.6667C6.47314 16.6667 6.85629 17.04 6.85629 17.5C6.85629 17.96 6.47314 18.3333 6 18.3333ZM10.2857 15.8333H1.71429V4.14667H10.2857V15.8333Z" fill="#035596"/>
</svg>
