<svg width="46" height="47" viewBox="0 0 46 47" fill="none" xmlns="http://www.w3.org/2000/svg">
<circle cx="23.1158" cy="23.4525" r="22.5714" fill="#4927FF"/>
<path d="M23.6 27.8915H17.9077C17.2244 27.8915 16.6777 27.3425 16.6708 26.6564V18.2098C16.6708 17.5236 17.2244 16.9678 17.9077 16.9678H32.0121C33.3788 16.9678 34.4858 15.8562 34.4858 14.4839C34.4858 13.1116 33.3788 12 32.0121 12H14.6891C13.0491 12 11.7166 13.3243 11.7166 14.9505C11.7166 14.9574 11.7166 14.9711 11.7166 14.9779V29.8882C11.7166 31.535 13.0491 32.873 14.6891 32.873H23.6C24.9667 32.873 26.0737 31.7614 26.0737 30.3891C26.0737 29.0099 24.9667 27.8915 23.6 27.8915Z" fill="white"/>
<path d="M32.0121 20.4397H24.0989C22.7322 20.4397 21.3792 21.5513 21.3792 22.9236C21.3792 24.2959 22.7322 25.4075 24.0989 25.4075H28.3083C28.9917 25.4075 29.5452 25.9633 29.5452 26.6494V30.3753C29.5452 31.7476 30.6522 32.8592 32.0189 32.8592C33.3856 32.8592 34.4926 31.7476 34.4926 30.3753V22.9236C34.4926 21.5513 33.3856 20.4397 32.0121 20.4397Z" fill="white"/>
<path fill-rule="evenodd" clip-rule="evenodd" d="M22.5957 34.6432C22.5957 34.6432 22.5137 34.6432 22.3429 34.6432C22.2609 34.6432 22.1789 34.8079 22.1789 34.8079C22.1789 34.8079 21.4477 36.0361 21.4272 36.0704C21.4067 36.1047 21.3657 36.1047 21.3452 36.0704C21.2769 35.9538 20.5935 34.8079 20.5935 34.8079C20.5935 34.8079 20.5115 34.6432 20.4295 34.6432C20.2655 34.6432 20.1767 34.6432 20.1767 34.6432C20.1767 34.6432 20.0947 34.6432 20.0947 34.7256C20.0947 34.8079 20.0947 37.0791 20.0947 37.0791C20.0947 37.0791 20.0947 37.1614 20.1767 37.1614C20.2587 37.1614 20.4295 37.1614 20.4295 37.1614C20.4295 37.1614 20.5115 37.1614 20.5115 37.0791V35.6176C20.5115 35.4803 20.5935 35.5695 20.5935 35.5695C20.5935 35.5695 21.1197 36.4547 21.2905 36.7429C21.3384 36.8183 21.434 36.8252 21.4819 36.7429C21.6459 36.4547 22.1789 35.5695 22.1789 35.5695C22.1789 35.5695 22.2609 35.4735 22.2609 35.6176C22.2609 35.7891 22.2609 37.0791 22.2609 37.0791C22.2609 37.0791 22.2609 37.1614 22.3429 37.1614C22.4249 37.1614 22.5957 37.1614 22.5957 37.1614C22.5957 37.1614 22.6777 37.1614 22.6777 37.0791V34.7256C22.6846 34.6432 22.5957 34.6432 22.5957 34.6432ZM25.1925 34.6432C25.1105 34.6432 23.5183 34.6432 23.5183 34.6432C23.5183 34.6432 23.3543 34.6432 23.3543 34.8079C23.3543 34.9726 23.3543 36.9899 23.3543 36.9899C23.3543 36.9899 23.3543 37.1614 23.5183 37.1614C23.6823 37.1614 25.1925 37.1614 25.1925 37.1614C25.1925 37.1614 25.2745 37.1614 25.2745 37.0791C25.2745 36.9967 25.2745 36.8252 25.2745 36.8252C25.2745 36.8252 25.2745 36.7429 25.1925 36.7429C25.1105 36.7429 23.8531 36.7429 23.8531 36.7429C23.8531 36.7429 23.7711 36.7429 23.7711 36.6605C23.7711 36.5782 23.7711 36.1596 23.7711 36.1596C23.7711 36.1596 23.7711 36.0773 23.8531 36.0773C23.9351 36.0773 24.6868 36.0773 24.6868 36.0773C24.6868 36.0773 24.7688 36.0773 24.7688 35.995C24.7688 35.9126 24.7688 35.7411 24.7688 35.7411C24.7688 35.7411 24.7688 35.6587 24.6868 35.6587C24.6048 35.6587 23.8531 35.6587 23.8531 35.6587C23.8531 35.6587 23.7711 35.6587 23.7711 35.5764C23.7711 35.4941 23.7711 35.1578 23.7711 35.1578C23.7711 35.1578 23.7711 35.0755 23.8531 35.0755C23.9351 35.0755 25.1925 35.0755 25.1925 35.0755C25.1925 35.0755 25.2745 35.0755 25.2745 34.9932C25.2745 34.9108 25.2745 34.7393 25.2745 34.7393C25.2745 34.7393 25.2745 34.6432 25.1925 34.6432ZM19.0013 34.6432C18.5845 34.6432 17.4979 34.6432 17.4979 34.6432C17.4979 34.6432 17.0811 34.6432 17.0811 35.0618C17.0811 35.4803 17.0811 36.7429 17.0811 36.7429C17.0811 36.7429 17.0811 37.1614 17.4979 37.1614C17.9148 37.1614 19.0013 37.1614 19.0013 37.1614C19.0013 37.1614 19.4182 37.1614 19.4182 36.7429C19.4182 36.3243 19.4182 35.0618 19.4182 35.0618C19.4182 35.0618 19.4182 34.6432 19.0013 34.6432ZM19.0013 36.5713C19.0013 36.7429 18.8305 36.7429 18.8305 36.7429C18.8305 36.7429 17.826 36.7429 17.6619 36.7429C17.4911 36.7429 17.4911 36.5713 17.4911 36.5713C17.4911 36.5713 17.4911 35.398 17.4911 35.2265C17.4911 35.0618 17.6619 35.0618 17.6619 35.0618C17.6619 35.0618 18.6665 35.0618 18.8305 35.0618C19.0013 35.0618 19.0013 35.2265 19.0013 35.2265C19.0013 35.2265 19.0013 36.4067 19.0013 36.5713ZM16.4866 34.6432C16.4866 34.6432 14.9832 34.6432 14.8124 34.6432C14.6484 34.6432 14.6484 34.8079 14.6484 34.8079C14.6484 34.8079 14.6484 36.8252 14.6484 36.9899C14.6484 37.1614 14.8124 37.1614 14.8124 37.1614C14.8124 37.1614 16.4046 37.1614 16.4866 37.1614C16.5686 37.1614 16.5686 37.0791 16.5686 37.0791C16.5686 37.0791 16.5686 36.9144 16.5686 36.8252C16.5686 36.7429 16.4866 36.7429 16.4866 36.7429C16.4866 36.7429 15.2292 36.7429 15.1472 36.7429C15.0652 36.7429 15.0652 36.6605 15.0652 36.6605C15.0652 36.6605 15.0652 36.242 15.0652 36.1596C15.0652 36.0773 15.1472 36.0773 15.1472 36.0773C15.1472 36.0773 15.8989 36.0773 15.9809 36.0773C16.0629 36.0773 16.0629 35.995 16.0629 35.995V35.7411C16.0629 35.7411 16.0629 35.6587 15.9809 35.6587H15.1472C15.0652 35.6587 15.0652 35.5764 15.0652 35.5764C15.0652 35.5764 15.0652 35.2402 15.0652 35.1578C15.0652 35.0755 15.1472 35.0755 15.1472 35.0755C15.1472 35.0755 16.4046 35.0755 16.4866 35.0755C16.5686 35.0755 16.5686 34.9932 16.5686 34.9932C16.5686 34.9932 16.5686 34.8285 16.5686 34.7393C16.5754 34.6432 16.4866 34.6432 16.4866 34.6432ZM13.8967 34.6432C13.8967 34.6432 12.5573 34.6432 12.1405 34.6432C11.7236 34.6432 11.7236 35.0618 11.7236 35.0618C11.7236 35.0618 11.7236 36.3243 11.7236 36.7429C11.7236 37.1614 12.1405 37.1614 12.1405 37.1614C12.1405 37.1614 13.145 37.1614 13.5618 37.1614C13.9787 37.1614 13.9787 36.7429 13.9787 36.7429C13.9787 36.7429 13.9787 36.0704 13.9787 35.9058C13.9787 35.7342 13.8147 35.7342 13.8147 35.7342C13.8147 35.7342 12.981 35.7342 12.8922 35.7342C12.8102 35.7342 12.8102 35.8166 12.8102 35.8166C12.8102 35.8166 12.8102 35.9881 12.8102 36.0704C12.8102 36.1528 12.8922 36.1528 12.8922 36.1528C12.8922 36.1528 13.309 36.1528 13.4798 36.1528C13.5618 36.1528 13.5618 36.2351 13.5618 36.2351C13.5618 36.2351 13.5618 36.3998 13.5618 36.5713C13.5618 36.7429 13.3978 36.7429 13.3978 36.7429C13.3978 36.7429 12.4753 36.7429 12.3113 36.7429C12.1473 36.7429 12.1473 36.5713 12.1473 36.5713C12.1473 36.5713 12.1473 35.398 12.1473 35.2265C12.1473 35.0618 12.3113 35.0618 12.3113 35.0618C12.3113 35.0618 13.8147 35.0618 13.9035 35.0618C13.9855 35.0618 13.9855 34.9794 13.9855 34.9794C13.9855 34.9794 13.9855 34.8148 13.9855 34.7256C13.9787 34.6432 13.8967 34.6432 13.8967 34.6432ZM34.4792 36.9968C34.3972 36.8321 33.6455 34.9794 33.5567 34.8148C33.4747 34.6501 33.3927 34.6501 33.3927 34.6501H33.1398C33.1398 34.6501 33.0578 34.6501 32.9758 34.8148C32.8938 34.9794 32.0533 36.9968 32.0533 36.9968C32.0533 36.9968 31.9713 37.1683 32.0533 37.1683C32.1353 37.1683 32.3608 37.1683 32.3608 37.1683C32.3608 37.1683 32.4223 37.1683 32.4633 37.0791C32.5111 36.9899 32.6205 36.7429 32.6615 36.6605C32.7093 36.5782 32.764 36.5782 32.764 36.5782H33.707C33.707 36.5782 33.789 36.5782 33.83 36.6605C33.871 36.7429 34.0418 37.0791 34.0418 37.0791C34.0418 37.0791 34.0555 37.1683 34.1444 37.1683C34.2264 37.1683 34.4792 37.1683 34.4792 37.1683C34.4792 37.1683 34.5612 37.1614 34.4792 36.9968ZM33.5225 36.1528C33.4405 36.1528 33.0237 36.1528 32.928 36.1528C32.8392 36.1528 32.8323 36.0979 32.8802 35.9881C32.9348 35.8783 33.1467 35.3705 33.1808 35.2951C33.215 35.2127 33.2833 35.2265 33.3175 35.3157C33.3585 35.4049 33.5362 35.8714 33.584 35.995C33.6455 36.1185 33.6045 36.1528 33.5225 36.1528ZM27.7004 34.6432C27.6184 34.6432 25.7733 34.6432 25.7733 34.6432C25.7733 34.6432 25.6913 34.6432 25.6913 34.7256C25.6913 34.8079 25.6913 34.9794 25.6913 34.9794C25.6913 34.9794 25.6913 35.0618 25.7733 35.0618C25.8553 35.0618 26.443 35.0618 26.443 35.0618C26.443 35.0618 26.525 35.0618 26.525 35.1441C26.525 35.2265 26.525 37.0791 26.525 37.0791C26.525 37.0791 26.525 37.1614 26.607 37.1614H26.8598C26.9418 37.1614 26.9418 37.0791 26.9418 37.0791V35.1441C26.9418 35.1441 26.9418 35.0618 27.0238 35.0618C27.1058 35.0618 27.6935 35.0618 27.6935 35.0618C27.6935 35.0618 27.7755 35.0618 27.7755 34.9794C27.7755 34.8971 27.7755 34.7256 27.7755 34.7256C27.7755 34.7256 27.7824 34.6432 27.7004 34.6432ZM31.4656 34.6432C31.3836 34.6432 31.2128 34.6432 31.2128 34.6432C31.2128 34.6432 31.1308 34.6432 31.1308 34.7256C31.1308 34.8079 31.1308 37.0791 31.1308 37.0791C31.1308 37.0791 31.1308 37.1614 31.2128 37.1614C31.2948 37.1614 31.4656 37.1614 31.4656 37.1614C31.4656 37.1614 31.5476 37.1614 31.5476 37.0791C31.5476 36.9967 31.5476 34.7256 31.5476 34.7256C31.5476 34.7256 31.5476 34.6432 31.4656 34.6432ZM29.8734 36.4067C29.8734 36.4067 29.6889 36.242 29.8324 36.242C29.9144 36.242 29.9554 36.242 29.9554 36.242C29.9554 36.242 30.3723 36.242 30.3723 35.8234C30.3723 35.4049 30.3723 35.0686 30.3723 35.0686C30.3723 35.0686 30.3723 34.6501 29.9554 34.6501C29.5386 34.6501 28.452 34.6501 28.452 34.6501C28.452 34.6501 28.288 34.6501 28.288 34.8148C28.288 34.9794 28.288 37.086 28.288 37.086C28.288 37.086 28.288 37.1683 28.37 37.1683C28.452 37.1683 28.6229 37.1683 28.6229 37.1683C28.6229 37.1683 28.7049 37.1683 28.7049 37.086C28.7049 37.0036 28.7049 36.3312 28.7049 36.3312C28.7049 36.3312 28.7049 36.2488 28.7869 36.2488H29.0397C29.1217 36.2488 29.2037 36.2488 29.2926 36.3312C29.3746 36.4135 29.9964 37.1203 29.9964 37.1203C29.9964 37.1203 30.0306 37.1683 30.1263 37.1683C30.2083 37.1683 30.4611 37.1683 30.4611 37.1683C30.4611 37.1683 30.5431 37.1683 30.4611 37.086C30.3791 36.9967 29.8734 36.4067 29.8734 36.4067ZM28.7869 35.8166C28.7049 35.8166 28.7049 35.7342 28.7049 35.7342C28.7049 35.7342 28.7049 35.2333 28.7049 35.1441C28.7049 35.0618 28.7869 35.0618 28.7869 35.0618C28.7869 35.0618 29.6206 35.0618 29.7914 35.0618C29.9622 35.0618 29.9554 35.2265 29.9554 35.2265C29.9554 35.2265 29.9554 35.4803 29.9554 35.645C29.9554 35.8097 29.7914 35.8097 29.7914 35.8097C29.7914 35.8097 28.8757 35.8166 28.7869 35.8166Z" fill="white"/>
</svg>
