<svg width="13" height="22" viewBox="0 0 13 22" fill="none" xmlns="http://www.w3.org/2000/svg">
<path d="M13 1.83333C13 0.821333 12.168 0 11.1429 0H1.85714C0.832 0 0 0.821333 0 1.83333V20.1667C0 21.1787 0.832 22 1.85714 22H11.1429C12.168 22 13 21.1787 13 20.1667V1.83333ZM5.10714 1.83333H7.89286C8.14914 1.83333 8.35714 2.03867 8.35714 2.29167C8.35714 2.54467 8.14914 2.75 7.89286 2.75H5.10714C4.85086 2.75 4.64286 2.54467 4.64286 2.29167C4.64286 2.03867 4.85086 1.83333 5.10714 1.83333ZM6.5 20.1667C5.9865 20.1667 5.57143 19.756 5.57143 19.25C5.57143 18.744 5.9865 18.3333 6.5 18.3333C7.01257 18.3333 7.42764 18.744 7.42764 19.25C7.42764 19.756 7.01257 20.1667 6.5 20.1667ZM11.1429 17.4167H1.85714V4.56133H11.1429V17.4167Z" fill="#035596"/>
</svg>
