<svg width="48" height="48" viewBox="0 0 48 48" fill="none" xmlns="http://www.w3.org/2000/svg">
<path d="M30.7074 10.4604C25.1012 4.85425 15.9791 4.85425 10.3727 10.4604C7.65694 13.1761 6.16122 16.7871 6.16122 20.6278C6.16122 24.4686 7.65694 28.0795 10.3727 30.7952C13.1757 33.5983 16.8579 35 20.54 35C24.2221 35 27.9042 33.5984 30.7074 30.7952C36.3136 25.1889 36.3136 16.0668 30.7074 10.4604ZM29.6625 29.7503C24.6325 34.7806 16.4476 34.7804 11.4176 29.7503C8.98082 27.3137 7.63888 24.0738 7.63888 20.6278C7.63888 17.1818 8.98092 13.942 11.4175 11.5053C13.9326 8.99026 17.2363 7.73277 20.5401 7.73277C23.8438 7.73277 27.1474 8.99035 29.6626 11.5054C34.6927 16.5355 34.6927 24.7201 29.6625 29.7503Z" fill="white"/>
<path d="M36.32 14.0382C36.1627 13.6617 35.7304 13.4839 35.3535 13.6412C34.977 13.7985 34.7993 14.2312 34.9565 14.6078C35.7511 16.5104 36.1539 18.536 36.1539 20.6278C36.1539 21.036 36.4847 21.3667 36.8927 21.3667C37.3008 21.3667 37.6316 21.036 37.6316 20.6278C37.6317 18.3394 37.1904 16.1223 36.32 14.0382Z" fill="white"/>
<path d="M34.4878 10.7424C33.9337 9.96382 33.3071 9.22349 32.6256 8.54208C29.3973 5.31396 25.1054 3.53613 20.54 3.53613C20.1319 3.53613 19.8011 3.86685 19.8011 4.27492C19.8011 4.68298 20.1319 5.01379 20.54 5.01379C24.7106 5.01379 28.6316 6.63793 31.5807 9.58704C32.2043 10.2105 32.7773 10.8876 33.2839 11.5995C33.4281 11.802 33.6555 11.9098 33.8865 11.9098C34.0346 11.9098 34.1843 11.8653 34.3144 11.7728C34.6467 11.5362 34.7243 11.0748 34.4878 10.7424Z" fill="white"/>
<path d="M46.9752 42.6744L41.4027 37.1019C41.114 36.8135 40.6463 36.8135 40.3577 37.1019L39.2084 38.2512L35.2275 34.2702C38.6885 30.5506 40.587 25.7354 40.587 20.6278C40.587 15.2732 38.5017 10.2389 34.7154 6.45247C30.929 2.66616 25.8948 0.580872 20.5401 0.580872C15.1853 0.580872 10.1511 2.66616 6.36474 6.45247C-1.4515 14.2688 -1.4515 26.9868 6.36474 34.8032C10.1511 38.5894 15.1853 40.6747 20.5401 40.6747C25.6477 40.6747 30.4628 38.7762 34.1824 35.3151L38.1634 39.2961L37.014 40.4454C36.7256 40.734 36.7256 41.2018 37.014 41.4902L42.5866 47.0628C42.7309 47.207 42.92 47.2791 43.1091 47.2791C43.2982 47.2791 43.4873 47.207 43.6316 47.0628L46.9752 43.7192C47.2636 43.4308 47.2636 42.963 46.9752 42.6744ZM33.6705 33.7582C30.1632 37.2656 25.5001 39.1971 20.5401 39.1971C15.5801 39.1971 10.9168 37.2656 7.40962 33.7582C0.16945 26.518 0.16945 14.7375 7.40962 7.49744C10.9169 3.99004 15.5801 2.05853 20.5401 2.05853C25.5001 2.05853 30.1632 3.99004 33.6705 7.49744C37.1779 11.0047 39.1094 15.6679 39.1094 20.6278C39.1094 25.5877 37.1779 30.251 33.6705 33.7582ZM43.1092 45.4956L38.5815 40.9679L39.7299 39.8195C39.7301 39.8192 39.7306 39.819 39.7309 39.8186C39.7311 39.8183 39.7314 39.8179 39.7318 39.8176L40.8802 38.6692L45.4079 43.1969L43.1092 45.4956Z" fill="white"/>
<path d="M30.691 24.6175H29.8536V13.141C29.8536 12.7328 29.5229 12.4021 29.1149 12.4021H25.5684C25.1603 12.4021 24.8295 12.7328 24.8295 13.141V24.6175H22.7609V16.6873C22.7609 16.2792 22.43 15.9485 22.022 15.9485H18.4756C18.0676 15.9485 17.7368 16.2793 17.7368 16.6873V24.6175H15.6681V15.5052C15.6681 15.097 15.3373 14.7663 14.9292 14.7663H11.3829C10.9748 14.7663 10.644 15.097 10.644 15.5052V24.6174H9.80661C9.39854 24.6174 9.06773 24.9481 9.06773 25.3562C9.06773 25.7642 9.39854 26.095 9.80661 26.095H11.3828H14.9291H18.4755H22.0219H25.5682H29.1147H30.6908C31.099 26.095 31.4297 25.7643 31.4297 25.3562C31.4297 24.948 31.0992 24.6175 30.691 24.6175ZM14.1905 24.6175H12.1218V16.244H14.1905V24.6175ZM21.2833 24.6175H19.2146V17.4262H21.2833V24.6175ZM28.3761 24.6175H26.3074V13.8798H28.3761V24.6175Z" fill="white"/>
</svg>
