<svg width="41" height="54" viewBox="0 0 41 54" fill="none" xmlns="http://www.w3.org/2000/svg">
<path d="M40.0513 3.18369L20.7571 0.771943C20.6862 0.762949 20.6149 0.762949 20.544 0.771943L1.24979 3.18369C0.820059 3.23742 0.497559 3.60273 0.497559 4.03588V35.7325C0.497559 39.5495 2.56427 43.0832 5.89104 44.9546L20.2295 53.0199C20.3603 53.0935 20.5054 53.1302 20.6506 53.1302C20.7957 53.1302 20.9409 53.0935 21.0715 53.0199L35.41 44.9546C38.7368 43.0832 40.8035 39.5496 40.8035 35.7325V4.03588C40.8036 3.60273 40.4811 3.23742 40.0513 3.18369ZM39.086 35.7325C39.086 38.9299 37.3548 41.89 34.5681 43.4576L20.6506 51.2861L6.73309 43.4575C3.94636 41.8898 2.21513 38.9299 2.21513 35.7324V4.79403L20.6506 2.48963L39.086 4.79403V35.7325Z" fill="white"/>
<path d="M20.544 4.84638L4.90372 6.80142C4.47399 6.85515 4.15149 7.22045 4.15149 7.6536V34.0689C4.15149 37.2217 5.85859 40.1405 8.6065 41.6862L20.2295 48.2242C20.3602 48.2977 20.5053 48.3345 20.6504 48.3345C20.7956 48.3345 20.9407 48.2977 21.0714 48.2242L32.6944 41.6862V41.6863C35.4423 40.1406 37.1494 37.2218 37.1494 34.069V7.65349C37.1494 7.22045 36.8269 6.85503 36.3972 6.8013L20.7571 4.84638C20.6862 4.8375 20.6149 4.8375 20.544 4.84638ZM35.4319 8.41164V34.0688C35.4319 36.602 34.0603 38.9472 31.8526 40.1891L20.6506 46.4902L9.44855 40.1891C7.24068 38.9473 5.86917 36.602 5.86917 34.0688V8.41164L20.6506 6.56395L35.4319 8.41164Z" fill="white"/>
</svg>
