<svg width="33" height="44" viewBox="0 0 33 44" fill="none" xmlns="http://www.w3.org/2000/svg">
<path d="M12.6916 33.4042C12.6916 33.9616 12.2397 34.4135 11.6823 34.4135H7.85648C7.29906 34.4135 6.84721 33.9616 6.84721 33.4042C6.84721 32.8468 7.29906 32.3949 7.85648 32.3949H11.6823C12.2397 32.3949 12.6916 32.8468 12.6916 33.4042ZM19.1604 14.3262H22.9862C23.5436 14.3262 23.9954 13.8744 23.9954 13.317C23.9954 12.7596 23.5436 12.3077 22.9862 12.3077H19.1604C18.6029 12.3077 18.1511 12.7596 18.1511 13.317C18.1511 13.8744 18.603 14.3262 19.1604 14.3262ZM19.1604 18.6011H22.9862C23.5436 18.6011 23.9954 18.1492 23.9954 17.5918C23.9954 17.0344 23.5436 16.5826 22.9862 16.5826H19.1604C18.6029 16.5826 18.1511 17.0344 18.1511 17.5918C18.1511 18.1492 18.603 18.6011 19.1604 18.6011ZM14.7772 20.8129H7.85648C7.29906 20.8129 6.84721 21.2647 6.84721 21.8222C6.84721 22.3796 7.29906 22.8314 7.85648 22.8314H14.7772C15.3346 22.8314 15.7865 22.3796 15.7865 21.8222C15.7865 21.2647 15.3346 20.8129 14.7772 20.8129ZM14.7116 28.1412H7.85638C7.29896 28.1412 6.84711 28.593 6.84711 29.1504C6.84711 29.7079 7.29896 30.1597 7.85638 30.1597H14.7116C15.269 30.1597 15.7209 29.7079 15.7209 29.1504C15.7209 28.593 15.269 28.1412 14.7116 28.1412ZM32.9121 29.6978V36.2821C32.9121 40.2532 29.6813 43.4838 25.7103 43.4838C23.831 43.4838 22.1176 42.7604 20.8339 41.5773H1.79967C1.24225 41.5773 0.790405 41.1255 0.790405 40.5681V1.52521C0.790405 0.967797 1.24225 0.515949 1.79967 0.515949H22.1142C22.376 0.512618 22.6351 0.61415 22.8294 0.804901L22.8317 0.807122L22.833 0.808434L22.8339 0.809342L22.8361 0.811563L29.7568 7.7323L29.7589 7.73442L29.7611 7.73664C29.9026 7.87986 29.9949 8.0588 30.0328 8.24814C30.0332 8.25016 30.034 8.25419 30.034 8.25419L30.0346 8.25722C30.0469 8.32202 30.053 8.38812 30.0524 8.45443V28.3994C30.7361 28.4818 31.4137 28.5836 32.0828 28.7048C32.563 28.7917 32.9121 29.2098 32.9121 29.6978ZM23.1317 7.43669H26.6066L23.1317 3.96178V7.43669ZM18.5084 36.2822V29.6978C18.5084 29.2098 18.8575 28.7916 19.3377 28.7046C21.4022 28.3305 23.5462 28.1409 25.7102 28.1409C26.4883 28.1409 27.2639 28.1654 28.0339 28.2142V9.45522H22.1224C21.565 9.45522 21.1132 9.00337 21.1132 8.44595V2.53448H2.80894V39.559H19.2979C18.7932 38.5754 18.5084 37.4615 18.5084 36.2822ZM30.8936 30.5518C29.2048 30.2912 27.4651 30.1594 25.7101 30.1594C23.9552 30.1594 22.2155 30.2912 20.5268 30.5518V36.2821C20.5268 39.1402 22.852 41.4653 25.7101 41.4653C28.5682 41.4653 30.8936 39.1401 30.8936 36.2821V30.5518ZM24.7008 33.0559V34.8031H22.9538C22.3964 34.8031 21.9445 35.255 21.9445 35.8124C21.9445 36.3698 22.3964 36.8217 22.9538 36.8217H24.7008V38.569C24.7008 39.1264 25.1527 39.5783 25.7101 39.5783C26.2675 39.5783 26.7194 39.1264 26.7194 38.569V36.8217H28.4668C29.0242 36.8217 29.4761 36.3698 29.4761 35.8124C29.4761 35.255 29.0242 34.8031 28.4668 34.8031H26.7194V33.0559C26.7194 32.4985 26.2675 32.0466 25.7101 32.0466C25.1527 32.0466 24.7008 32.4985 24.7008 33.0559ZM22.9862 22.8314C23.5436 22.8314 23.9954 22.3796 23.9954 21.8222C23.9954 21.2647 23.5436 20.8129 22.9862 20.8129H19.1604C18.6029 20.8129 18.1511 21.2647 18.1511 21.8222C18.1511 22.3796 18.6029 22.8314 19.1604 22.8314H22.9862ZM14.7772 16.5826H7.85648C7.29906 16.5826 6.84721 17.0344 6.84721 17.5918C6.84721 18.1492 7.29906 18.6011 7.85648 18.6011H14.7772C15.3346 18.6011 15.7865 18.1492 15.7865 17.5918C15.7865 17.0344 15.3346 16.5826 14.7772 16.5826ZM14.7772 12.3077H7.85648C7.29906 12.3077 6.84721 12.7596 6.84721 13.317C6.84721 13.8744 7.29906 14.3262 7.85648 14.3262H14.7772C15.3346 14.3262 15.7865 13.8744 15.7865 13.317C15.7865 12.7596 15.3346 12.3077 14.7772 12.3077Z" fill="white"/>
</svg>
