<svg width="42" height="55" viewBox="0 0 42 55" fill="none" xmlns="http://www.w3.org/2000/svg">
<path d="M41.3138 1.69651C41.0995 1.53177 40.818 1.46571 40.5464 1.5166L26.3851 4.17579C25.953 4.25691 25.6419 4.61315 25.6419 5.02698V5.36221H21.8264V0.911862C21.8264 0.432446 21.4125 0.0438232 20.9019 0.0438232H15.2374C14.7268 0.0438232 14.3129 0.432446 14.3129 0.911862V5.36221H12.7945C13.1258 4.83679 13.3168 4.22465 13.3168 3.57105C13.3168 1.62615 11.6317 0.0438232 9.56005 0.0438232C7.48845 0.0438232 5.80327 1.62615 5.80327 3.57105C5.80327 4.24341 6.00494 4.87239 6.35409 5.40772C2.86769 5.78679 0.151611 8.57416 0.151611 11.9475V14.9357C0.151611 15.4151 0.565526 15.8038 1.07614 15.8038H4.66446C5.17508 15.8038 5.58899 15.4151 5.58899 14.9357V12.6115C5.58899 11.3065 6.71978 10.2448 8.10976 10.2448H14.3129V11.1768C9.46144 12.1652 5.81612 16.2268 5.81612 21.0735V54.1302C5.81612 54.6096 6.23003 54.9982 6.74065 54.9982H29.3987C29.9093 54.9982 30.3232 54.6096 30.3232 54.1302V21.0734C30.3232 16.2268 26.6779 12.1652 21.8264 11.1767V10.2447H25.6419V10.5858C25.6419 10.9997 25.953 11.3559 26.3851 11.437L40.5464 14.0962C40.6066 14.1076 40.6673 14.1131 40.7277 14.1131C40.9395 14.1131 41.1471 14.0446 41.3138 13.9163C41.528 13.7515 41.6521 13.5051 41.6521 13.245V2.36767C41.6522 2.10772 41.528 1.86138 41.3138 1.69651ZM16.1619 1.7799H19.9774V10.6806H16.1619V1.7799ZM9.56005 1.7799C10.612 1.7799 11.4678 2.58343 11.4678 3.57105C11.4678 4.55868 10.612 5.36221 9.56005 5.36221C8.50815 5.36221 7.65233 4.55868 7.65233 3.57105C7.65233 2.58343 8.50815 1.7799 9.56005 1.7799ZM8.10989 8.5087C5.70033 8.5087 3.74006 10.3492 3.74006 12.6115V14.0677H2.00068V11.9475C2.00068 9.27364 4.3176 7.09828 7.16551 7.09828H14.3129V8.50882L8.10989 8.5087ZM7.66518 53.262V51.3599H28.4741V53.262H7.66518ZM28.4741 21.0734V49.6238H7.66518V21.0734C7.66518 16.4466 11.6743 12.6825 16.6022 12.6825H19.5373C24.465 12.6825 28.4741 16.4467 28.4741 21.0734ZM21.8264 8.5087V7.09828H25.6419V8.50882L21.8264 8.5087ZM39.8032 12.1863L27.491 9.87431V5.73852L39.8032 3.4265V12.1863Z" fill="white"/>
</svg>
