<svg width="73" height="49" viewBox="0 0 73 49" fill="none" xmlns="http://www.w3.org/2000/svg">
<path d="M10.2844 34.2902L7.4066 31.4122C4.58702 28.5926 2.80588 24.8556 2.39171 20.8895C2.32421 20.2422 1.74409 19.7723 1.09717 19.84C0.44983 19.9078 -0.02003 20.4872 0.0476152 21.1345C0.517897 25.6362 2.53966 29.8782 5.74022 33.0787L8.61802 35.9565C8.8481 36.1866 9.14976 36.3018 9.45128 36.3018C9.7528 36.3018 10.0545 36.1868 10.2845 35.9565C10.7447 35.4964 10.7447 34.7503 10.2844 34.2902Z" fill="white"/>
<path d="M48.3774 16.3023C47.9168 15.8421 47.1709 15.8423 46.7107 16.3026L41.7002 21.3151C41.2402 21.7754 41.2403 22.5214 41.7005 22.9816C41.9307 23.2117 42.2322 23.3266 42.5337 23.3266C42.8353 23.3266 43.1369 23.2114 43.3672 22.9812L48.3777 17.9687C48.8378 17.5084 48.8377 16.7623 48.3774 16.3023Z" fill="white"/>
<path d="M51.9052 21.2031C51.4446 20.7427 50.6984 20.743 50.2387 21.2033L42.0649 29.3789C41.6047 29.8391 41.6047 30.5853 42.065 31.0454C42.2952 31.2755 42.5966 31.3904 42.8981 31.3904C43.1998 31.3904 43.5015 31.2754 43.7315 31.0451L51.9054 22.8695C52.3657 22.4093 52.3657 21.6631 51.9052 21.2031Z" fill="white"/>
<path d="M70.9899 12.0446C70.3429 11.9762 69.7629 12.4468 69.6955 13.0941C69.2809 17.0603 67.4999 20.7974 64.6802 23.6169L50.3272 37.9698C49.987 38.31 49.5349 38.4973 49.0537 38.4973C48.5726 38.4973 48.1206 38.31 47.7803 37.9697C47.4401 37.6295 47.2528 37.1773 47.2528 36.6962C47.2528 36.2151 47.4401 35.7628 47.7803 35.4228C47.7826 35.4205 47.7842 35.4183 47.7862 35.4162L57.001 26.2014C57.4612 25.7412 57.4612 24.995 57.001 24.5349C56.5406 24.0747 55.7946 24.0747 55.3343 24.5349L44.4965 35.3727C44.2969 34.8013 43.9694 34.2651 43.5135 33.8091L38.0265 28.3223L40.8529 25.4958C41.3131 25.0357 41.3131 24.2895 40.8529 23.8293C40.3928 23.3693 39.6467 23.3689 39.1863 23.8293L36.3599 26.6556L27.3361 17.632C27.3132 17.609 27.2658 17.5617 27.3038 17.4695C27.3418 17.3776 27.4091 17.3774 27.4413 17.3774L32.5026 17.3694C34.9242 17.3656 36.8913 15.3924 36.8873 12.9706C36.8835 10.5519 34.9138 8.58594 32.4957 8.58594C32.4943 8.58594 32.4928 8.58594 32.4915 8.58594L12.774 8.6045C12.123 8.60506 11.596 9.13329 11.5966 9.784C11.5972 10.4344 12.1247 10.9614 12.775 10.9614C12.7753 10.9614 12.7758 10.9614 12.7761 10.9614L32.4936 10.9428C32.4943 10.9428 32.4949 10.9428 32.4954 10.9428C33.6157 10.9428 34.5285 11.8539 34.5304 12.9744C34.5321 14.0964 33.6207 15.0108 32.4988 15.0125L27.4377 15.0205C26.4214 15.0221 25.5138 15.63 25.1256 16.5693C24.7373 17.5086 24.951 18.5798 25.6696 19.2986L41.8468 35.4758C42.5472 36.1762 42.5487 37.3139 41.8526 38.0166L41.8464 38.0228C41.8452 38.024 41.8445 38.0251 41.8434 38.0261C41.5035 38.3643 41.0528 38.5508 40.5731 38.5508C40.092 38.5508 39.6398 38.3635 39.2996 38.0233L25.3754 24.099C24.9152 23.6386 24.169 23.6389 23.7089 24.099C23.2487 24.5592 23.2487 25.3054 23.7089 25.7656L40.2862 42.343C40.9885 43.0452 40.9885 44.188 40.2862 44.8902C39.946 45.2304 39.4938 45.4177 39.0127 45.4177C38.5316 45.4177 38.0793 45.2304 37.7393 44.8902L21.8476 28.9983C21.3874 28.5382 20.6412 28.5382 20.1811 28.9983C19.7209 29.4585 19.7209 30.2047 20.1811 30.6648L32.7878 43.2716C33.4896 43.9739 33.4894 45.1163 32.7873 45.8182C32.0849 46.5204 30.9423 46.5204 30.2401 45.8182L16.752 32.3301C16.292 31.8699 15.5458 31.8699 15.0855 32.3301C14.6253 32.7903 14.6253 33.5365 15.0855 33.9966L24.307 43.2183C25.0091 43.9206 25.0089 45.0631 24.3069 45.7652C23.9667 46.1054 23.5144 46.2927 23.0333 46.2927C22.5522 46.2927 22.0997 46.1054 21.7596 45.7652L13.2423 37.2475C12.7821 36.7874 12.0359 36.7874 11.5758 37.2475C11.1156 37.7077 11.1156 38.4539 11.5758 38.914L20.0932 47.4314C20.8785 48.2169 21.9227 48.6493 23.0333 48.6493C24.1439 48.6493 25.1881 48.2169 25.9734 47.4314C26.4293 46.9755 26.7571 46.4393 26.9566 45.8676L28.5736 47.4846C29.3842 48.2952 30.4491 48.7004 31.5137 48.7004C32.5784 48.7004 33.6432 48.2949 34.4538 47.4846C34.9097 47.0286 35.2375 46.4921 35.437 45.9206L36.0726 46.5563C36.8579 47.3416 37.9021 47.774 39.0127 47.774C40.1235 47.774 41.1677 47.3416 41.953 46.5561C43.5741 44.9349 43.5741 42.297 41.953 40.6759L41.9509 40.6738C42.5322 40.4703 43.065 40.1376 43.5135 39.6891C43.5175 39.685 43.5212 39.6808 43.5253 39.6767L45.1288 38.0732C45.3323 38.6546 45.6652 39.1877 46.1136 39.6361C46.8989 40.4215 47.9432 40.854 49.0537 40.854C50.1645 40.854 51.2087 40.4215 51.994 39.6361L66.347 25.2832C69.5474 22.0828 71.569 17.8408 72.0395 13.339C72.1071 12.6918 71.6373 12.1122 70.9899 12.0446Z" fill="white"/>
<path d="M63.3052 14.4809C63.0707 13.8739 62.3888 13.5715 61.7814 13.806C59.9605 14.5087 57.9975 14.6502 56.1038 14.2158C55.4694 14.0701 54.8371 14.4662 54.6916 15.1005C54.546 15.7348 54.9421 16.3672 55.5763 16.5128C56.4691 16.7178 57.3736 16.8198 58.2766 16.8198C59.7543 16.8198 61.2266 16.5465 62.6301 16.0046C63.2374 15.7702 63.5395 15.0881 63.3052 14.4809Z" fill="white"/>
<path d="M59.3129 0.808255L39.556 0.789551C39.5546 0.789551 39.5533 0.789551 39.552 0.789551C37.1556 0.789551 35.2035 2.73818 35.1997 5.13459L35.1995 5.21377C35.1977 6.37626 35.6486 7.46997 36.4695 8.29324C37.2901 9.11708 38.3824 9.57147 39.545 9.57316L45.0044 9.58174L34.1864 20.3998C33.7262 20.8599 33.7262 21.6061 34.1864 22.0663C34.4165 22.2964 34.7181 22.4115 35.0197 22.4115C35.3212 22.4115 35.6228 22.2965 35.8529 22.0663L47.4965 10.4227C48.5213 12.2493 49.9917 13.7645 51.8211 14.8569C52.0104 14.97 52.2187 15.0239 52.4243 15.0239C52.8254 15.0239 53.2165 14.819 53.4371 14.4495C53.7707 13.8908 53.5883 13.1672 53.0296 12.8335C51.1483 11.7101 49.7358 10.0328 48.9447 7.98314C48.9439 7.98089 48.9423 7.97921 48.9416 7.97696C48.7699 7.54001 48.3453 7.22976 47.8472 7.22906L39.5486 7.21598C39.0155 7.21514 38.515 7.00672 38.1385 6.62926C37.7622 6.25165 37.5556 5.75029 37.5564 5.21785L37.5566 5.13867C37.5582 4.03975 38.4532 3.1463 39.552 3.1463C39.5526 3.1463 39.5533 3.1463 39.5538 3.1463L59.3107 3.16501C59.311 3.16501 59.3116 3.16501 59.3119 3.16501C59.9622 3.16501 60.4897 2.63805 60.4902 1.98762C60.4908 1.3369 59.9637 0.808958 59.3129 0.808255Z" fill="white"/>
</svg>
