<svg width="65" height="55" viewBox="0 0 65 55" fill="none" xmlns="http://www.w3.org/2000/svg">
<path d="M48.7254 17.6694C48.0412 17.9384 47.7047 18.7111 47.9737 19.3953C49.0444 22.1185 49.5875 25.0011 49.5875 27.9628C49.5875 40.8599 39.0919 51.3523 26.1911 51.3523C13.2956 51.3523 2.80425 40.8598 2.80425 27.9628C2.80425 15.068 13.2956 4.57717 26.1911 4.57717C32.6972 4.57717 38.7403 7.18061 43.2068 11.9076C43.7118 12.442 44.5542 12.4659 45.0884 11.961C45.6228 11.4561 45.6466 10.6137 45.1418 10.0793C42.7316 7.52841 39.8867 5.52103 36.6862 4.11263C33.3719 2.65445 29.841 1.91504 26.1908 1.91504C11.8273 1.91504 0.141846 13.5999 0.141846 27.9628C0.141846 42.3277 11.8273 54.0145 26.1908 54.0145C33.1519 54.0145 39.6958 51.3053 44.617 46.386C49.5389 41.4661 52.2495 34.9232 52.2495 27.9628C52.2495 24.6662 51.6444 21.4559 50.4512 18.4211C50.1821 17.737 49.4098 17.4004 48.7254 17.6694Z" fill="#035596"/>
<path d="M38.9587 16.5138C39.4655 15.9814 39.4448 15.1388 38.9123 14.6319C35.4659 11.351 30.948 9.54395 26.1908 9.54395C16.0395 9.54395 7.78094 17.8067 7.78094 27.9628C7.78094 38.1197 16.0395 46.3828 26.1908 46.3828C36.3531 46.3828 44.6207 38.1197 44.6207 27.9628C44.6207 26.0634 44.3312 24.193 43.7601 22.4035C43.5366 21.7032 42.7876 21.3168 42.0873 21.5401C41.3869 21.7635 41.0005 22.5125 41.2239 23.2128C41.7114 24.7405 41.9586 26.3385 41.9586 27.9628C41.9586 36.6516 34.8852 43.7207 26.1908 43.7207C17.5074 43.7207 10.4431 36.6518 10.4431 27.9628C10.4431 19.2746 17.5074 12.2061 26.1908 12.2061C30.2615 12.2061 34.1275 13.7524 37.0768 16.56C37.6092 17.067 38.4518 17.0462 38.9587 16.5138Z" fill="#035596"/>
<path d="M26.1908 19.3817C27.8014 19.3817 29.367 19.827 30.7209 20.6706C30.9347 20.8032 31.1373 20.9431 31.3233 21.0863C31.9057 21.5347 32.7414 21.4262 33.1899 20.8439C33.6385 20.2614 33.5299 19.4257 32.9476 18.9772C32.6908 18.7796 32.4137 18.5881 32.1264 18.4099C30.3521 17.3042 28.2996 16.7197 26.1907 16.7197C19.9965 16.7197 14.9571 21.7637 14.9571 27.9635C14.9571 34.1655 19.9964 39.2112 26.1907 39.2112C32.3949 39.2112 37.4424 34.1655 37.4424 27.9635C37.4424 27.4573 37.4086 26.9622 37.3389 26.4497C37.2398 25.7213 36.5691 25.2117 35.8405 25.3102C35.1121 25.4093 34.6019 26.0801 34.701 26.8085C34.7543 27.2008 34.7803 27.5786 34.7803 27.9635C34.7803 32.6976 30.927 36.549 26.1907 36.549C21.4644 36.549 17.6193 32.6976 17.6193 27.9635C17.6195 23.2314 21.4646 19.3817 26.1908 19.3817Z" fill="#035596"/>
<path d="M63.3852 11.3093L57.9524 8.06066L57.3018 1.83073C57.2539 1.37085 56.9706 0.969001 56.5539 0.768941C56.1372 0.569015 55.6463 0.599497 55.2577 0.849604L50.0288 4.21454C49.6536 4.456 49.4243 4.86956 49.4183 5.31573L49.3246 12.2298L28.2417 25.0343C27.6356 24.5956 26.8922 24.336 26.0891 24.336C24.052 24.336 22.3948 25.9921 22.3948 28.0277C22.3948 30.0633 24.0521 31.7194 26.0891 31.7194C28.1208 31.7194 29.7737 30.0633 29.7737 28.0277C29.7737 27.7668 29.7462 27.5123 29.6945 27.2666L50.8658 14.4085L56.9324 17.0322C57.1017 17.1054 57.2816 17.1415 57.4607 17.1415C57.7118 17.1415 57.9615 17.0705 58.179 16.931L63.4203 13.5721C63.8084 13.3234 64.0402 12.8916 64.0331 12.4308C64.0258 11.9701 63.7808 11.5458 63.3852 11.3093ZM57.3389 14.3076L51.99 11.9945L52.0704 6.06659L54.8789 4.25926L55.3739 8.99946C55.4174 9.41635 55.6549 9.78852 56.0147 10.0036L60.174 12.4907L57.3389 14.3076Z" fill="#035596"/>
</svg>
