<svg width="58" height="59" viewBox="0 0 58 59" fill="none" xmlns="http://www.w3.org/2000/svg">
<path d="M35.9707 11.2832C34.1626 11.2832 32.6918 12.7541 32.6918 14.5621C32.6918 16.3702 34.1626 17.841 35.9707 17.841C37.7788 17.841 39.2496 16.3702 39.2496 14.5621C39.2496 12.7539 37.7788 11.2832 35.9707 11.2832ZM35.9707 15.6551C35.3676 15.6551 34.8778 15.1651 34.8778 14.5621C34.8778 13.9591 35.3677 13.4692 35.9707 13.4692C36.5738 13.4692 37.0636 13.9591 37.0636 14.5621C37.0637 15.1651 36.5738 15.6551 35.9707 15.6551Z" fill="#035596"/>
<path d="M56.498 23.7157C55.0026 21.8468 52.7003 19.5455 50.2636 17.1088C46.9794 13.8235 40.8644 7.70862 41.3789 6.16418C42.1858 3.74452 43.5916 3.63566 43.6214 3.63238C44.1455 3.63238 44.5959 3.26091 44.6951 2.74643C44.7934 2.23196 44.5137 1.71963 44.027 1.52429C43.7901 1.43034 38.2708 -0.735293 33.5659 1.43249C31.2231 1.31402 16.5213 1.09946 7.49575 12.168C-0.38768 21.8382 -1.45823 37.1209 4.31608 57.5212C4.44846 57.9919 4.8786 58.3519 5.36742 58.3519H40.3425C40.7353 58.3519 41.0971 58.1061 41.2913 57.7656C41.4866 57.4241 41.4834 56.9881 41.2838 56.6497C37.7658 50.6971 29.4778 34.9221 29.1896 26.9236C29.7265 28.1169 30.543 29.2907 31.8068 30.1447C33.7333 31.4479 36.3036 31.7148 39.4416 30.9441C40.176 30.8694 47.5963 30.2331 50.335 34.7991C50.6285 35.2869 51.2465 35.4689 51.761 35.2138C51.9734 35.1071 56.9794 32.5643 57.8354 28.6675C58.2101 26.9607 57.7596 25.2943 56.498 23.7157ZM55.7007 28.1943C55.2748 30.1475 53.0516 31.8926 51.6042 32.7913C47.6796 27.7737 39.4802 28.7333 39.114 28.7792C39.0703 28.7845 39.0275 28.7931 38.9848 28.8037C36.4413 29.4388 34.4368 29.2808 33.0311 28.3298C30.8974 26.8868 30.4887 23.9302 30.2933 22.5085C30.1929 21.7847 30.0691 20.884 29.1032 20.8317C28.0977 20.7869 27.9867 21.2589 27.2598 24.1696C25.3086 31.9708 35.25 50.4279 38.4532 56.1659H6.19684C0.880365 36.7657 1.88253 22.5632 9.17788 13.6006C18.0647 2.68268 33.5488 3.6395 33.7056 3.64696C33.9106 3.66516 34.0995 3.61362 34.2735 3.52612C36.4285 2.44912 38.9421 2.57268 40.7544 2.90142C40.2111 3.4896 39.6925 4.31349 39.3061 5.47482C38.4266 8.11118 42.2755 12.2127 48.718 18.6553C51.111 21.0486 53.3706 23.3074 54.7902 25.0823C55.6314 26.1326 55.9292 27.1504 55.7007 28.1943Z" fill="#035596"/>
</svg>
