<svg width="57" height="57" viewBox="0 0 57 57" fill="none" xmlns="http://www.w3.org/2000/svg">
<path d="M52.3034 0.283447H4.85161C2.29905 0.283447 0.222168 2.36021 0.222168 4.91289V37.319C0.222168 39.8716 2.29893 41.9484 4.85161 41.9484H32.0496V55.8367C32.0496 56.3133 32.3416 56.7411 32.7854 56.9147C32.9224 56.9683 33.0651 56.9942 33.2067 56.9942C33.5236 56.9942 33.8339 56.8639 34.0574 56.6218L47.6019 41.9484H52.3034C54.856 41.9484 56.9328 39.8716 56.9328 37.319V4.91289C56.9328 2.36021 54.8562 0.283447 52.3034 0.283447ZM54.6181 37.319C54.6181 38.5953 53.5797 39.6337 52.3034 39.6337H47.0952C46.7722 39.6337 46.4639 39.7687 46.2448 40.006L34.3643 52.8765V40.791C34.3643 40.1518 33.846 39.6337 33.2069 39.6337H4.85161C3.57527 39.6337 2.53689 38.5953 2.53689 37.319V4.91289C2.53689 3.63655 3.57527 2.59817 4.85161 2.59817H52.3034C53.5797 2.59817 54.6181 3.63655 54.6181 4.91289V37.319Z" fill="#035596"/>
<path d="M25.1057 24.0095V18.2227C25.1057 13.1174 20.9522 8.96387 15.8468 8.96387C10.7415 8.96387 6.58795 13.1174 6.58795 18.2227V24.0095C6.58795 29.1149 10.7415 33.2684 15.8468 33.2684C17.9832 33.2684 19.9513 32.5392 21.5197 31.3192L24.2873 34.0868L25.9242 32.4499L23.1566 29.6823C24.3765 28.114 25.1057 26.1459 25.1057 24.0095ZM22.791 24.0095C22.791 25.5071 22.3129 26.8941 21.5037 28.0295L18.4012 24.9271L16.7644 26.564L19.8668 29.6664C18.7314 30.4757 17.3443 30.9537 15.8468 30.9537C12.0178 30.9537 8.90267 27.8386 8.90267 24.0095V18.2227C8.90267 14.3937 12.0178 11.2786 15.8468 11.2786C19.6758 11.2786 22.791 14.3937 22.791 18.2227V24.0095Z" fill="#035596"/>
<path d="M38.9939 11.2783H29.735V13.593H38.9939V11.2783Z" fill="#035596"/>
<path d="M47.674 11.2783H40.7298V13.593H47.674V11.2783Z" fill="#035596"/>
<path d="M50.5675 17.0649H29.735V19.3797H50.5675V17.0649Z" fill="#035596"/>
<path d="M50.5675 22.8518H29.735V25.1665H50.5675V22.8518Z" fill="#035596"/>
<path d="M50.5675 28.6387H29.735V30.9534H50.5675V28.6387Z" fill="#035596"/>
</svg>
