<svg width="40" height="61" viewBox="0 0 40 61" fill="none" xmlns="http://www.w3.org/2000/svg">
<path d="M19.1441 0.142124C9.38149 0.591795 1.51082 8.27737 0.83563 18.0174C0.442059 23.6941 2.5445 29.2191 6.60324 33.1763C9.37005 35.8737 11.1737 39.2471 11.8193 42.93C11.9917 43.9155 12.0796 44.9011 12.0796 45.86V53.6392C12.0796 54.3543 12.6588 54.933 13.3734 54.933H14.8074V58.0916C14.8074 59.6558 16.0797 60.9281 17.6439 60.9281H22.4665C24.0307 60.9281 25.303 59.6558 25.303 58.0916V54.933H26.7363C27.4507 54.933 28.0301 54.3543 28.0301 53.6392V45.86C28.0301 44.9011 28.1179 43.9143 28.2904 42.93C28.9354 39.2483 30.7396 35.875 33.5079 33.175C37.2571 29.5198 39.3216 24.6226 39.3216 19.3882C39.322 8.4606 30.1861 -0.351955 19.1441 0.142124ZM22.7154 58.0915C22.7154 58.229 22.6037 58.3404 22.4665 58.3404H17.6439C17.5068 58.3404 17.395 58.229 17.395 58.0915V54.9328H22.7153V58.0915H22.7154ZM31.701 31.3227C28.5411 34.4042 26.4803 38.2642 25.7419 42.4827C25.5429 43.6148 25.4425 44.7506 25.4425 45.8599V52.3453H14.6672V45.8599C14.6672 44.7506 14.5667 43.6148 14.3677 42.4827C13.6286 38.2615 11.5679 34.403 8.41001 31.3239C4.89561 27.8975 3.07627 23.1127 3.41685 18.1966C4.00111 9.76695 10.8137 3.11617 19.2629 2.72695C28.8095 2.25688 36.7339 9.92729 36.7339 19.388C36.7339 23.9202 34.9468 28.1578 31.701 31.3227Z" fill="#035596"/>
<path d="M27.1461 14.2853L29.1857 12.2462L27.3562 10.4168L25.3164 12.4559C24.1739 11.6061 22.8199 11.0262 21.3491 10.8094V7.92773H18.7616V10.8094C17.2908 11.0262 15.9368 11.6062 14.7942 12.456L12.7539 10.4168L10.9243 12.2462L12.9646 14.2854C12.1146 15.4278 11.5344 16.7818 11.3175 18.2528H8.43604V20.8403H11.3175C11.5344 22.3112 12.1145 23.6653 12.9645 24.8079L10.9243 26.848L12.7539 28.6774L14.7938 26.6375C15.9364 27.4876 17.2905 28.068 18.7614 28.2848V31.1665H21.349V28.285C22.8199 28.068 24.1741 27.4877 25.3167 26.6377L27.3562 28.6775L29.1857 26.8481L27.1462 24.8081C27.9962 23.6655 28.5763 22.3114 28.7931 20.8404H31.674V18.2529H28.7931C28.5763 16.7817 27.9962 15.4277 27.1461 14.2853ZM20.0553 25.7928C16.6112 25.7928 13.8096 22.9905 13.8096 19.5464C13.8096 16.1023 16.6112 13.3011 20.0553 13.3011C23.4995 13.3011 26.3012 16.1022 26.3012 19.5464C26.3013 22.9905 23.4996 25.7928 20.0553 25.7928Z" fill="#035596"/>
</svg>
