<svg width="15" height="15" viewBox="0 0 15 15" fill="none" xmlns="http://www.w3.org/2000/svg">
<path d="M10.2721 10.9634C9.20094 11.86 7.8213 12.4009 6.3171 12.4009C2.91545 12.4009 0.154724 9.64022 0.154724 6.23929C0.154724 2.83836 2.91545 0.0776367 6.3171 0.0776367C9.71731 0.0776367 12.4788 2.83836 12.4788 6.23929C12.4788 7.74422 11.9378 9.12458 11.0412 10.1942L14.4805 13.6343C14.5862 13.74 14.6391 13.8791 14.6391 14.0188C14.6391 14.444 14.2502 14.562 14.0959 14.562C13.9569 14.562 13.8178 14.5091 13.7114 14.4027L10.2721 10.9634ZM6.3171 1.16469C3.51582 1.16469 1.2425 3.43874 1.2425 6.23929C1.2425 9.03984 3.51582 11.3139 6.3171 11.3139C9.11693 11.3139 11.3917 9.03984 11.3917 6.23929C11.3917 3.43874 9.11693 1.16469 6.3171 1.16469Z" fill="#DBDBDB"/>
</svg>
