<svg width="115" height="28" viewBox="0 0 115 28" fill="none" xmlns="http://www.w3.org/2000/svg">
<path fill-rule="evenodd" clip-rule="evenodd" d="M48.2736 5.05176L48.2816 9.14502H36.8535L36.8709 18.6495H48.299L48.3062 22.7779L32.2647 22.8139L32.2452 9.06328L35.4936 5.06023L48.2736 5.05176ZM68.1368 5.05176L68.1584 22.825H51.9289L51.9196 5.05176H68.1368ZM56.5668 9.15603L56.5863 18.6605H63.4701L63.49 9.15603H56.5668ZM76.353 22.825H71.6854L71.6732 5.11655H76.3094L76.2869 12.1545H79.2388L79.2541 5.05176H95.4395L95.4302 22.825H79.304L79.2854 15.7866H76.3314L76.353 22.825ZM83.831 9.15603L83.8483 18.7012H90.8139L90.8312 9.15603H83.831ZM98.9343 5.05176L98.9627 9.14502H110.391L110.385 12.0897H101.873V15.7218H110.379L110.373 18.6906H98.9458L98.9267 22.8008L114.965 22.7762L115 15.7557L113.51 13.8922L115 12.0444L114.999 5.06954L98.9343 5.05176Z" fill="#DBDBDB"/>
<path fill-rule="evenodd" clip-rule="evenodd" d="M19.7105 23.191L17.8835 20.982H10.7164C10.7164 21.7185 10.7164 22.4549 10.7164 23.191C13.9296 23.191 16.4973 23.191 19.7105 23.191ZM3.55177 27.1792L16.4804 27.1818L19.0727 23.9792H9.77065V13.6145H16.0929V10.4538H7.2859L3.55177 15.0337V27.1792ZM0.651123 12.5443V24.6136L2.76361 27.1788V14.7529L6.91193 9.66608H16.2504L14.423 7.45703H4.79945L0.651123 12.5443Z" fill="#DBDBDB"/>
<path fill-rule="evenodd" clip-rule="evenodd" d="M26.1487 15.2835V3.21419L24.0366 0.648958V13.0749L19.8883 18.1617H10.5494L12.3769 20.3708H22.0008L26.1487 15.2835ZM23.2485 0.648534L10.3199 0.645996L7.72753 3.84861H17.0296V14.3708H10.7074V17.374H19.5139L23.2485 12.7941V0.648534ZM7.08972 4.63677L8.91676 6.84582H16.0839C16.0839 6.10933 16.0839 5.37284 16.0839 4.63677C12.8707 4.63677 10.3029 4.63677 7.08972 4.63677Z" fill="#DBDBDB"/>
</svg>
