<svg width="45" height="59" viewBox="0 0 45 59" fill="none" xmlns="http://www.w3.org/2000/svg">
<path d="M17.0017 44.8376C17.0017 45.5924 16.3898 46.2042 15.6351 46.2042H10.4546C9.69987 46.2042 9.08803 45.5924 9.08803 44.8376C9.08803 44.0829 9.69987 43.471 10.4546 43.471H15.6351C16.3898 43.471 17.0017 44.0829 17.0017 44.8376ZM25.7608 19.0048H30.9413C31.696 19.0048 32.3079 18.393 32.3079 17.6382C32.3079 16.8834 31.696 16.2716 30.9413 16.2716H25.7608C25.0061 16.2716 24.3942 16.8834 24.3942 17.6382C24.3942 18.393 25.0062 19.0048 25.7608 19.0048ZM25.7608 24.7933H30.9413C31.696 24.7933 32.3079 24.1814 32.3079 23.4266C32.3079 22.6719 31.696 22.06 30.9413 22.06H25.7608C25.0061 22.06 24.3942 22.6719 24.3942 23.4266C24.3942 24.1814 25.0062 24.7933 25.7608 24.7933ZM19.8258 27.7882H10.4546C9.69987 27.7882 9.08803 28.4 9.08803 29.1548C9.08803 29.9096 9.69987 30.5214 10.4546 30.5214H19.8258C20.5806 30.5214 21.1924 29.9096 21.1924 29.1548C21.1924 28.4 20.5806 27.7882 19.8258 27.7882ZM19.7369 37.7112H10.4545C9.69973 37.7112 9.0879 38.323 9.0879 39.0778C9.0879 39.8326 9.69973 40.4444 10.4545 40.4444H19.7369C20.4917 40.4444 21.1036 39.8326 21.1036 39.0778C21.1036 38.323 20.4917 37.7112 19.7369 37.7112ZM44.3816 39.8189V48.7345C44.3816 54.1116 40.007 58.4861 34.6299 58.4861C32.0852 58.4861 29.7652 57.5065 28.027 55.9046H2.25333C1.49855 55.9046 0.886719 55.2928 0.886719 54.538V1.67141C0.886719 0.916627 1.49855 0.304795 2.25333 0.304795H29.7605C30.115 0.300285 30.4658 0.437766 30.729 0.696056C30.7292 0.696193 30.7293 0.696329 30.7294 0.696466C30.7303 0.697286 30.7312 0.698106 30.732 0.699063C30.7326 0.699609 30.7333 0.700293 30.7338 0.700839C30.7342 0.701249 30.7346 0.701659 30.735 0.702069C30.736 0.703026 30.7371 0.704119 30.738 0.705076L40.1092 10.0762C40.11 10.0772 40.111 10.0781 40.1119 10.0791C40.112 10.0792 40.1123 10.0795 40.1126 10.0798C40.1133 10.0804 40.1141 10.0813 40.1149 10.0821C40.1151 10.0822 40.1152 10.0824 40.1153 10.0826C40.3069 10.2766 40.4316 10.5183 40.4828 10.7747V10.7748C40.4834 10.7776 40.4839 10.7803 40.4844 10.7829V10.783C40.4847 10.7844 40.485 10.7856 40.4853 10.787V10.7871C40.5019 10.8749 40.5101 10.9642 40.5093 11.054V38.0609C41.4352 38.1724 42.3526 38.3103 43.2587 38.4744C43.9089 38.5921 44.3816 39.1581 44.3816 39.8189ZM31.1383 9.67593H35.8436L31.1383 4.97068V9.67593ZM24.878 48.7347V39.8189C24.878 39.1581 25.3507 38.5919 26.001 38.4741C28.7965 37.9675 31.6996 37.7107 34.6297 37.7107C35.6834 37.7107 36.7335 37.744 37.7762 37.8101V12.4092H29.7717C29.0169 12.4092 28.4051 11.7973 28.4051 11.0425V3.03802H3.61994V53.1716H25.9471C25.2637 51.8397 24.878 50.3315 24.878 48.7347ZM41.6484 40.9753C39.3616 40.6224 37.006 40.444 34.6296 40.444C32.2533 40.444 29.8977 40.6224 27.6111 40.9753V48.7345C27.6111 52.6045 30.7596 55.7529 34.6296 55.7529C38.4997 55.7529 41.6484 52.6044 41.6484 48.7345V40.9753ZM33.263 44.366V46.7319H30.8974C30.1426 46.7319 29.5308 47.3437 29.5308 48.0985C29.5308 48.8533 30.1426 49.4651 30.8974 49.4651H33.263V51.8311C33.263 52.5859 33.8748 53.1977 34.6296 53.1977C35.3844 53.1977 35.9962 52.5859 35.9962 51.8311V49.4651H38.3624C39.1171 49.4651 39.729 48.8533 39.729 48.0985C39.729 47.3437 39.1171 46.7319 38.3624 46.7319H35.9962V44.366C35.9962 43.6112 35.3844 42.9994 34.6296 42.9994C33.8748 42.9994 33.263 43.6112 33.263 44.366ZM30.9413 30.5214C31.696 30.5214 32.3079 29.9096 32.3079 29.1548C32.3079 28.4 31.696 27.7882 30.9413 27.7882H25.7608C25.0061 27.7882 24.3942 28.4 24.3942 29.1548C24.3942 29.9096 25.0061 30.5214 25.7608 30.5214H30.9413ZM19.8258 22.06H10.4546C9.69987 22.06 9.08803 22.6719 9.08803 23.4266C9.08803 24.1814 9.69987 24.7933 10.4546 24.7933H19.8258C20.5806 24.7933 21.1924 24.1814 21.1924 23.4266C21.1924 22.6719 20.5806 22.06 19.8258 22.06ZM19.8258 16.2716H10.4546C9.69987 16.2716 9.08803 16.8834 9.08803 17.6382C9.08803 18.393 9.69987 19.0048 10.4546 19.0048H19.8258C20.5806 19.0048 21.1924 18.393 21.1924 17.6382C21.1924 16.8834 20.5806 16.2716 19.8258 16.2716Z" fill="white"/>
</svg>
