<svg width="48" height="64" viewBox="0 0 48 64" fill="none" xmlns="http://www.w3.org/2000/svg">
<path d="M16.5574 23.2663C19.2702 23.2663 21.8176 22.1727 23.7304 20.1871C25.3801 18.4745 27.3048 15.3083 27.1044 9.95047C26.8743 3.8128 22.0934 0.660968 17.4554 0.174911C17.1721 0.145167 16.0665 0.137042 15.8456 0.156774C11.15 0.577105 6.24311 3.73068 6.01052 9.95062C5.81015 15.3083 7.7348 18.4745 9.38449 20.1871C11.2972 22.1727 13.8446 23.2663 16.5574 23.2663ZM21.6404 18.174C20.2796 19.5866 18.4745 20.3646 16.5574 20.3646C14.6403 20.3646 12.8352 19.5866 11.4744 18.174C10.1002 16.7473 9.25985 14.7803 8.9926 12.4086C14.2396 12.1286 19.6735 10.8627 24.0779 8.89914C24.1453 9.26796 24.1894 9.65376 24.2045 10.0591C24.333 13.4932 23.4464 16.2993 21.6404 18.174ZM16.5574 3.01755C19.0245 3.11694 21.5319 4.14854 22.9758 6.21465C18.9076 8.04571 13.8536 9.23183 8.95125 9.50548C9.39349 5.21975 13.0174 3.16017 16.5574 3.01755ZM34.4385 38.0926C27.3447 38.0926 21.5737 43.8639 21.5737 50.9579C21.5737 58.0517 27.3447 63.8229 34.4385 63.8229C41.5326 63.8229 47.3041 58.0517 47.3041 50.9579C47.3041 43.8639 41.5326 38.0926 34.4385 38.0926ZM34.4385 60.9211C28.9449 60.9211 24.4755 56.4517 24.4755 50.9579C24.4755 45.464 28.9449 40.9945 34.4385 40.9945C39.9326 40.9945 44.4023 45.464 44.4023 50.9579C44.4023 56.4517 39.9327 60.9211 34.4385 60.9211ZM35.8894 50.8878L35.8899 56.1281C35.8899 56.9295 35.2403 57.579 34.4391 57.5792C33.6377 57.5792 32.988 56.9296 32.988 56.1284L32.9876 50.8881C32.9876 50.0868 33.6372 49.4372 34.4384 49.4371C35.2399 49.4369 35.8894 50.0865 35.8894 50.8878ZM35.8899 45.7883C35.8899 46.5896 35.2401 47.2388 34.4389 47.2388C33.6378 47.2388 32.9876 46.5895 32.9876 45.7882C32.9876 44.9868 33.637 44.3378 34.4382 44.3378H34.4389C35.2403 44.3378 35.8899 44.987 35.8899 45.7883ZM16.8631 54.3491C16.8631 55.1505 16.2135 55.8001 15.4122 55.8001H1.71871C1.28749 55.8001 0.878771 55.6222 0.603241 55.2906C0.327567 54.9593 0.213525 54.5362 0.292164 54.1122L3.71503 35.6516C4.91493 29.1728 11.0359 26.2724 16.5699 26.2724C22.4856 26.2724 27.3653 29.3228 29.0016 34.0443C29.2641 34.8014 28.8631 35.6271 28.1058 35.8894C27.3487 36.1519 26.5222 35.749 26.2598 34.9919C24.7708 30.6957 20.1092 29.1677 16.5699 29.1677C12.2374 29.1677 7.46449 31.327 6.56826 36.1667L3.46329 52.8982H15.4122C16.2134 52.8982 16.8631 53.548 16.8631 54.3491Z" fill="white"/>
</svg>
