<svg width="50" height="76" viewBox="0 0 50 76" fill="none" xmlns="http://www.w3.org/2000/svg">
<path d="M29.6067 14.8828H6.45141C3.25946 14.8828 0.662598 17.4797 0.662598 20.6716V69.2977C0.662598 72.4896 3.25946 75.0865 6.45141 75.0865H29.6067C32.7986 75.0865 35.3955 72.4896 35.3955 69.2977V20.6716C35.3955 17.4797 32.7986 14.8828 29.6067 14.8828ZM2.97812 24.1449H33.0799V65.8244H2.97812V24.1449ZM6.45141 17.1983H29.6067C31.5219 17.1983 33.0799 18.7564 33.0799 20.6716V21.8294H2.97812V20.6716C2.97812 18.7564 4.53618 17.1983 6.45141 17.1983ZM29.6067 72.7709H6.45141C4.53618 72.7709 2.97812 71.2129 2.97812 69.2977V68.1399H33.0799V69.2977C33.0799 71.2129 31.5219 72.7709 29.6067 72.7709Z" fill="white"/>
<path d="M29.6067 10.2518C28.9673 10.2518 28.4489 10.7702 28.4489 11.4096C28.4489 12.049 28.9673 12.5674 29.6067 12.5674C34.0753 12.5674 37.711 16.203 37.711 20.6717C37.711 21.3111 38.2294 21.8295 38.8688 21.8295C39.5081 21.8295 40.0265 21.3111 40.0265 20.6717C40.0265 14.9262 35.3522 10.2518 29.6067 10.2518Z" fill="white"/>
<path d="M29.6067 5.62085C28.9673 5.62085 28.4489 6.13924 28.4489 6.77861C28.4489 7.41799 28.9673 7.93637 29.6067 7.93637C36.6289 7.93637 42.3421 13.6495 42.3421 20.6718C42.3421 21.3111 42.8605 21.8295 43.4998 21.8295C44.1392 21.8295 44.6576 21.3111 44.6576 20.6718C44.6576 12.3726 37.9058 5.62085 29.6067 5.62085Z" fill="white"/>
<path d="M29.6067 0.989746C28.9673 0.989746 28.4489 1.50813 28.4489 2.14751C28.4489 2.78688 28.9673 3.30527 29.6067 3.30527C39.1825 3.30527 46.9731 11.0959 46.9731 20.6717C46.9731 21.3111 47.4915 21.8295 48.1309 21.8295C48.7702 21.8295 49.2886 21.3111 49.2886 20.6717C49.2886 9.81899 40.4594 0.989746 29.6067 0.989746Z" fill="white"/>
<path d="M15.7135 20.6717H20.3445C20.9839 20.6717 21.5023 20.1533 21.5023 19.514C21.5023 18.8746 20.9839 18.3562 20.3445 18.3562H15.7135C15.0741 18.3562 14.5557 18.8746 14.5557 19.514C14.5557 20.1533 15.0741 20.6717 15.7135 20.6717Z" fill="white"/>
<path d="M21.5023 69.2977H14.5557C13.9163 69.2977 13.3979 69.8161 13.3979 70.4555C13.3979 71.0949 13.9163 71.6133 14.5557 71.6133H21.5023C22.1417 71.6133 22.66 71.0949 22.66 70.4555C22.66 69.8161 22.1417 69.2977 21.5023 69.2977Z" fill="white"/>
<path d="M12.2402 20.6717C12.5455 20.6717 12.8436 20.5487 13.0593 20.3331C13.2749 20.1174 13.3979 19.8179 13.3979 19.514C13.3979 19.2086 13.2749 18.9105 13.0593 18.6948C12.8436 18.4792 12.5455 18.3562 12.2402 18.3562C11.9348 18.3562 11.6367 18.4792 11.421 18.6948C11.2054 18.9105 11.0824 19.2086 11.0824 19.514C11.0824 19.8193 11.2054 20.1174 11.421 20.3331C11.6367 20.5487 11.9348 20.6717 12.2402 20.6717Z" fill="white"/>
<path d="M18.029 46.1425C21.2209 46.1425 23.8178 43.5456 23.8178 40.3537V39.1959C23.8178 36.004 21.2209 33.4071 18.029 33.4071C14.837 33.4071 12.2402 36.004 12.2402 39.1959V40.3537C12.2402 43.5456 14.837 46.1425 18.029 46.1425ZM14.5557 39.1959C14.5557 37.2807 16.1138 35.7226 18.029 35.7226C19.9442 35.7226 21.5023 37.2807 21.5023 39.1959V40.3537C21.5023 42.2689 19.9442 43.827 18.029 43.827C16.1138 43.827 14.5557 42.2689 14.5557 40.3537V39.1959Z" fill="white"/>
<path d="M26.0352 47.7566C25.1281 46.7402 23.9332 46.1804 22.6704 46.1804H21.6878C21.2857 46.1804 20.9125 46.389 20.7018 46.7314C20.0265 47.8288 19.0524 48.458 18.0289 48.458C17.0055 48.458 16.0314 47.8288 15.3561 46.7315C15.1454 46.3891 14.7722 46.1806 14.3701 46.1806H13.3875C10.7853 46.1804 8.76685 48.6495 8.76685 50.7736V53.2813C8.76685 54.4521 9.71939 55.4046 10.8902 55.4046H25.1725C26.3405 55.4046 27.2909 54.4542 27.2909 53.286V50.7736C27.291 49.7657 26.8216 48.6378 26.0352 47.7566ZM24.9755 53.0891H11.0824V50.7736C11.0824 49.9915 11.9801 48.4959 13.3875 48.4959H13.7591C14.8547 49.9517 16.3809 50.7736 18.0289 50.7736C19.677 50.7736 21.2032 49.9517 22.2986 48.4959H22.6703C24.0777 48.4959 24.9754 49.9915 24.9754 50.7736V53.0891H24.9755Z" fill="white"/>
</svg>
