<svg width="55" height="54" viewBox="0 0 55 54" fill="none" xmlns="http://www.w3.org/2000/svg">
<path d="M49.9366 0.260254H5.32434C2.92453 0.260254 0.971924 2.21275 0.971924 4.61267V35.0796C0.971924 37.4795 2.92442 39.432 5.32434 39.432H30.8948V52.4893C30.8948 52.9374 31.1693 53.3395 31.5866 53.5028C31.7155 53.5531 31.8496 53.5775 31.9827 53.5775C32.2806 53.5775 32.5723 53.455 32.7824 53.2274L45.5165 39.432H49.9366C52.3366 39.432 54.2891 37.4795 54.2891 35.0796V4.61267C54.2891 2.21275 52.3367 0.260254 49.9366 0.260254ZM52.1129 35.0796C52.1129 36.2796 51.1366 37.2558 49.9366 37.2558H45.0402C44.7365 37.2558 44.4466 37.3828 44.2406 37.6059L33.071 49.7062V38.3439C33.071 37.743 32.5838 37.2558 31.9829 37.2558H5.32434C4.12438 37.2558 3.14813 36.2796 3.14813 35.0796V4.61267C3.14813 3.41271 4.12438 2.43646 5.32434 2.43646H49.9366C51.1366 2.43646 52.1129 3.41271 52.1129 4.61267V35.0796Z" fill="white"/>
<path d="M24.3664 22.5664V17.1259C24.3664 12.326 20.4614 8.42102 15.6616 8.42102C10.8617 8.42102 6.95673 12.326 6.95673 17.1259V22.5664C6.95673 27.3662 10.8617 31.2712 15.6616 31.2712C17.6701 31.2712 19.5204 30.5856 20.995 29.4386L23.597 32.0406L25.1359 30.5017L22.5339 27.8997C23.6808 26.4252 24.3664 24.5749 24.3664 22.5664ZM22.1902 22.5664C22.1902 23.9743 21.7407 25.2784 20.9799 26.3458L18.0631 23.429L16.5242 24.9679L19.441 27.8847C18.3736 28.6456 17.0695 29.095 15.6616 29.095C12.0617 29.095 9.13294 26.1663 9.13294 22.5664V17.1259C9.13294 13.526 12.0617 10.5972 15.6616 10.5972C19.2615 10.5972 22.1902 13.526 22.1902 17.1259V22.5664Z" fill="white"/>
<path d="M37.4236 10.5973H28.7188V12.7735H37.4236V10.5973Z" fill="white"/>
<path d="M45.5844 10.5973H39.0557V12.7735H45.5844V10.5973Z" fill="white"/>
<path d="M48.3047 16.0378H28.7188V18.2141H48.3047V16.0378Z" fill="white"/>
<path d="M48.3047 21.4783H28.7188V23.6545H48.3047V21.4783Z" fill="white"/>
<path d="M48.3047 26.9188H28.7188V29.095H48.3047V26.9188Z" fill="white"/>
</svg>
