<svg width="61" height="31" viewBox="0 0 61 31" fill="none" xmlns="http://www.w3.org/2000/svg">
<path d="M59.004 30.5808C59.0265 30.5763 59.0484 30.5702 59.0705 30.5645C59.0893 30.5597 59.1083 30.5557 59.1267 30.55C59.1483 30.5435 59.1694 30.5354 59.1904 30.5278C59.209 30.5211 59.2279 30.515 59.2463 30.5072C59.2662 30.499 59.2853 30.4893 59.3047 30.4802C59.3235 30.4712 59.3426 30.4629 59.3611 30.4529C59.3796 30.443 59.397 30.4318 59.4149 30.4211C59.4334 30.4101 59.452 30.3997 59.47 30.3877C59.4891 30.3749 59.5069 30.3607 59.5254 30.3469C59.5409 30.3354 59.5568 30.3245 59.572 30.3121C59.5999 30.2891 59.6265 30.2646 59.6524 30.2394C59.657 30.2349 59.6621 30.2311 59.6667 30.2265C59.6715 30.2216 59.6757 30.2163 59.6803 30.2113C59.7052 30.1857 59.7294 30.1595 59.7521 30.1319C59.7654 30.1157 59.777 30.0988 59.7894 30.082C59.8022 30.0648 59.8156 30.048 59.8275 30.0301C59.8403 30.0109 59.8515 29.9911 59.8633 29.9714C59.8731 29.9548 59.8836 29.9386 59.8928 29.9215C59.9035 29.9017 59.9125 29.8812 59.9219 29.861C59.9304 29.843 59.9394 29.8252 59.9471 29.8068C59.9554 29.7869 59.962 29.7667 59.9692 29.7466C59.9763 29.7269 59.9839 29.7074 59.9899 29.6874C59.9962 29.667 60.0006 29.6463 60.0058 29.6256C60.0108 29.6052 60.0167 29.5852 60.0207 29.5647C60.0255 29.5403 60.0284 29.5158 60.0319 29.4913C60.0343 29.4741 60.0376 29.457 60.0393 29.4395C60.0436 29.3966 60.0459 29.3536 60.0459 29.3105V1.64585C60.0459 0.930885 59.4665 0.351562 58.7516 0.351562H17.9815C17.9701 0.351562 17.9591 0.352942 17.9477 0.353287C17.923 0.353978 17.8985 0.355014 17.874 0.357084C17.8545 0.358638 17.8352 0.360881 17.8158 0.36347C17.7938 0.366231 17.7718 0.36951 17.7499 0.373479C17.7294 0.377103 17.709 0.381417 17.6888 0.386076C17.6683 0.390908 17.6478 0.396086 17.6274 0.401953C17.6072 0.407648 17.5874 0.41386 17.5677 0.420418C17.5475 0.42732 17.5273 0.43457 17.5075 0.442508C17.4887 0.449928 17.4702 0.457521 17.4519 0.465804C17.4315 0.47495 17.4113 0.484788 17.3913 0.49497C17.3742 0.503771 17.3575 0.512744 17.3409 0.522236C17.3209 0.533625 17.3012 0.545705 17.2817 0.558131C17.2657 0.568485 17.25 0.579184 17.2345 0.590056C17.2162 0.602999 17.198 0.616459 17.1803 0.63061C17.164 0.643553 17.1482 0.656842 17.1325 0.670475C17.1169 0.684108 17.1016 0.697741 17.0866 0.712237C17.0695 0.728631 17.0531 0.745715 17.0369 0.762972C17.0287 0.771601 17.0201 0.779195 17.0124 0.787996C17.0077 0.793173 17.0041 0.798868 16.9996 0.804046C16.9834 0.822856 16.9682 0.842529 16.953 0.862374C16.9419 0.87687 16.9306 0.891366 16.9202 0.906207C16.9067 0.925535 16.8943 0.945381 16.8819 0.9654C16.8717 0.981794 16.8612 0.998015 16.8519 1.01475C16.841 1.03408 16.8315 1.05393 16.8217 1.07377C16.8127 1.09189 16.8034 1.11001 16.7953 1.12848C16.7868 1.14798 16.7794 1.16817 16.772 1.18802C16.7645 1.20752 16.7569 1.22685 16.7506 1.24652C16.7442 1.26636 16.739 1.28655 16.7335 1.30675C16.728 1.32745 16.7221 1.34799 16.7174 1.36887C16.7131 1.38837 16.7102 1.40822 16.7067 1.42789C16.7029 1.45033 16.6991 1.47276 16.6964 1.49519C16.6941 1.51383 16.6931 1.53281 16.6917 1.5518C16.69 1.57596 16.6884 1.60012 16.6881 1.62445C16.6879 1.63153 16.6871 1.63843 16.6871 1.6455V9.62729C16.6871 10.3423 17.2664 10.9216 17.9813 10.9216C18.6963 10.9216 19.2756 10.3423 19.2756 9.62729V4.52003L30.7829 14.7081C30.7228 14.7504 30.665 14.7972 30.6112 14.8509L19.2755 26.1866V17.6809C19.2755 16.9659 18.6961 16.3866 17.9812 16.3866C17.2662 16.3866 16.6869 16.9659 16.6869 17.6809V19.2623H9.99973C9.28477 19.2623 8.70544 19.8416 8.70544 20.5566C8.70544 21.2716 9.28477 21.8509 9.99973 21.8509H16.6869V29.3113C16.6869 30.0263 17.2662 30.6056 17.9812 30.6056H58.7512C58.7938 30.6056 58.8365 30.6034 58.8789 30.5992C58.8988 30.5973 58.9179 30.5935 58.9374 30.5908C58.9599 30.5877 58.9819 30.5851 59.004 30.5808ZM57.4571 26.1867L46.1212 14.851C46.114 14.8438 46.1062 14.8377 46.0988 14.8308L54.6209 7.60061C55.1659 7.13811 55.2328 6.32151 54.7703 5.77635C54.3082 5.23154 53.4916 5.16424 52.9461 5.6269L38.3843 17.9813L21.3957 2.94031H57.4571V26.1867ZM32.4418 16.6817C32.5341 16.5893 32.609 16.4865 32.6675 16.3771L37.5083 20.6629C37.753 20.8795 38.0595 20.9882 38.3664 20.9882C38.6642 20.9882 38.9619 20.8859 39.2039 20.6808L44.1372 16.4953C44.182 16.5609 44.2326 16.6235 44.2908 16.6817L55.6265 28.0174H21.1061L32.4418 16.6817Z" fill="white"/>
<path d="M1.65879 15.0919H23.5179C24.2329 15.0919 24.8122 14.5125 24.8122 13.7976C24.8122 13.0826 24.2329 12.5033 23.5179 12.5033H1.65879C0.943825 12.5033 0.364502 13.0826 0.364502 13.7976C0.364502 14.5125 0.943825 15.0919 1.65879 15.0919Z" fill="white"/>
<path d="M3.92368 7.95942H13.7387C14.4537 7.95942 15.033 7.3801 15.033 6.66514C15.033 5.95017 14.4537 5.37085 13.7387 5.37085H3.92368C3.20872 5.37085 2.62939 5.95017 2.62939 6.66514C2.62939 7.3801 3.20872 7.95942 3.92368 7.95942Z" fill="white"/>
<path d="M11.1502 24.7273H1.65879C0.943825 24.7273 0.364502 25.3066 0.364502 26.0216C0.364502 26.7365 0.943825 27.3159 1.65879 27.3159H11.1502C11.8652 27.3159 12.4445 26.7365 12.4445 26.0216C12.4445 25.3066 11.8652 24.7273 11.1502 24.7273Z" fill="white"/>
</svg>
