<svg width="46" height="46" viewBox="0 0 46 46" fill="none" xmlns="http://www.w3.org/2000/svg">
<circle cx="22.571" cy="23.3054" r="22.5669" fill="white"/>
<path fill-rule="evenodd" clip-rule="evenodd" d="M6.21436 18.9398V27.0749L14.3879 18.9398H6.21436Z" fill="#92CFAE"/>
<path fill-rule="evenodd" clip-rule="evenodd" d="M6.79141 27.6711H14.9842V19.5167L6.79141 27.6711Z" fill="#2A8288"/>
<path fill-rule="evenodd" clip-rule="evenodd" d="M19.5805 23.113C20.5228 23.113 21.0421 22.6515 21.0421 21.786V21.7283C21.0421 20.8052 20.5036 20.4398 19.5805 20.4398H18.5997V23.113H19.5805ZM16.6572 18.9397H19.6382C21.7345 18.9397 22.9268 19.8821 22.9268 21.7283V21.786C22.9268 23.6323 21.6575 24.4977 19.6959 24.4977H18.5997V27.671H16.6572V18.9397Z" fill="black"/>
<path fill-rule="evenodd" clip-rule="evenodd" d="M26.7736 26.1709C27.716 26.1709 28.1776 25.7478 28.1776 24.9593V24.9016C28.1776 24.1131 27.6968 23.69 26.7159 23.69H25.6389V26.1517H26.7736V26.1709ZM26.8313 27.671H23.735V18.9397H29.2353V20.4783H25.6389L25.6197 22.3053H26.889C28.8314 22.3053 30.0046 23.1707 30.0046 24.9208V24.9785C30.0046 26.6709 28.9276 27.671 26.8313 27.671Z" fill="black"/>
<path fill-rule="evenodd" clip-rule="evenodd" d="M31.4082 18.9589H33.4468V22.7092L36.5816 18.9397H38.7548L35.1969 23.0746L38.9279 27.671H36.5432L33.4468 23.7477V27.671H31.4082V18.9589Z" fill="black"/>
</svg>
