<svg width="25" height="25" viewBox="0 0 25 25" fill="none" xmlns="http://www.w3.org/2000/svg">
<path fill-rule="evenodd" clip-rule="evenodd" d="M3.10755 2.25283L5.94141 0.935547L9.96802 8.79643L7.25372 10.1336C6.71764 11.3882 9.40503 16.4002 10.539 16.4829C10.6287 16.4251 13.2005 15.1597 13.2005 15.1597L17.2958 23.0634C17.2958 23.0634 14.5417 24.4126 14.452 24.4544C13.8501 24.7294 13.2284 24.855 12.5966 24.85C6.93885 24.8071 0.496883 14.3237 0.526776 7.45821C0.537737 5.11559 1.30101 3.19447 3.10755 2.25283ZM5.03067 3.52229L4.01132 4.0245C-1.26382 6.77665 8.17343 25.134 13.6249 22.6439L14.5935 22.1716L12.3306 17.8042L11.3082 18.3034C8.15649 19.8449 3.07566 10.1137 6.27123 8.40084L7.27465 7.90462L5.03067 3.52229ZM13.9787 9.90347C14.8037 9.90347 15.4733 10.5731 15.4733 11.3981C15.4733 12.2232 14.8037 12.8928 13.9787 12.8928C13.1536 12.8928 12.484 12.2232 12.484 11.3981C12.484 10.5731 13.1536 9.90347 13.9787 9.90347ZM22.9466 9.90347C23.7717 9.90347 24.4413 10.5731 24.4413 11.3981C24.4413 12.2232 23.7717 12.8928 22.9466 12.8928C22.1216 12.8928 21.452 12.2232 21.452 11.3981C21.452 10.5731 22.1216 9.90347 22.9466 9.90347ZM18.4626 9.90347C19.2877 9.90347 19.9573 10.5731 19.9573 11.3981C19.9573 12.2232 19.2877 12.8928 18.4626 12.8928C17.6376 12.8928 16.968 12.2232 16.968 11.3981C16.968 10.5731 17.6376 9.90347 18.4626 9.90347Z" fill="white"/>
</svg>
