<svg width="23" height="23" viewBox="0 0 23 23" fill="none" xmlns="http://www.w3.org/2000/svg">
<path d="M0.932373 22.8612L2.48064 17.2318C1.52525 15.5841 1.02323 13.7162 1.02415 11.8007C1.0269 5.81247 5.92317 0.939453 11.9391 0.939453C14.8585 0.940367 17.599 2.07207 19.6603 4.12541C21.7206 6.17874 22.855 8.90799 22.8541 11.8108C22.8513 17.8 17.9551 22.673 11.9391 22.673C10.1128 22.6721 8.31303 22.2163 6.71887 21.3504L0.932373 22.8612ZM6.98686 19.3838C8.52503 20.2927 9.99345 20.8371 11.9354 20.838C16.9354 20.838 21.0085 16.7879 21.0112 11.809C21.013 6.81995 16.9593 2.7754 11.9428 2.77357C6.93914 2.77357 2.86885 6.82361 2.86702 11.8017C2.8661 13.834 3.46448 15.3557 4.46944 16.9478L3.55259 20.2799L6.98686 19.3838ZM17.4374 14.393C17.3695 14.2797 17.1878 14.2121 16.9143 14.076C16.6417 13.9399 15.3009 13.2832 15.0503 13.1928C14.8007 13.1023 14.619 13.0567 14.4364 13.3289C14.2546 13.6002 13.7315 14.2121 13.5727 14.393C13.414 14.5738 13.2543 14.5967 12.9817 14.4606C12.7091 14.3245 11.8299 14.0386 10.7882 13.1133C9.97785 12.3935 9.42995 11.5048 9.27118 11.2326C9.1124 10.9613 9.25466 10.8143 9.39048 10.6791C9.51346 10.5576 9.66306 10.3621 9.79981 10.2032C9.93839 10.0461 9.98336 9.93283 10.0751 9.75107C10.166 9.57021 10.121 9.41128 10.0522 9.27518C9.98336 9.14 9.43821 7.80369 9.21152 7.26021C8.98942 6.73135 8.76457 6.8026 8.59754 6.79438L8.07441 6.78524C7.89269 6.78524 7.59717 6.85283 7.34754 7.12503C7.09791 7.39722 6.39307 8.05305 6.39307 9.38936C6.39307 10.7257 7.37049 12.0163 7.50632 12.1972C7.64306 12.378 9.42903 15.1201 12.1649 16.2956C12.8156 16.5751 13.324 16.7423 13.7196 16.8674C14.373 17.0738 14.9677 17.0446 15.4376 16.9752C15.9617 16.8975 17.0511 16.3184 17.2787 15.6845C17.5063 15.0497 17.5063 14.5063 17.4374 14.393Z" fill="white"/>
</svg>
