<svg width="101" height="25" viewBox="0 0 101 25" fill="none" xmlns="http://www.w3.org/2000/svg">
<path fill-rule="evenodd" clip-rule="evenodd" d="M42.0246 4.67969L42.0317 8.29181H31.947L31.9623 16.6791H42.0471L42.0534 20.3222L27.8976 20.354L27.8804 8.21968L30.7469 4.68716L42.0246 4.67969ZM59.5531 4.67969L59.5721 20.3637H45.2503L45.2421 4.67969H59.5531ZM49.3431 8.30152L49.3603 16.6888H55.4349L55.4525 8.30152H49.3431ZM66.8035 20.3637H62.6846L62.6737 4.73687H66.765L66.7452 10.9475H69.3501L69.3635 4.67969H83.6465L83.6382 20.3637H69.4076L69.3912 14.1527H66.7844L66.8035 20.3637ZM73.4024 8.30152L73.4178 16.7247H79.5645L79.5799 8.30152H73.4024ZM86.7305 4.67969L86.7555 8.29181H96.8403L96.8355 10.8904H89.3238V14.0955H96.8295L96.825 16.7154H86.7406L86.7238 20.3424L100.877 20.3208L100.908 14.1254L99.5932 12.481L100.907 10.8504L100.907 4.69538L86.7305 4.67969Z" fill="#FEFEFE"/>
<path fill-rule="evenodd" clip-rule="evenodd" d="M16.8191 20.6865L15.2068 18.7371H8.88212C8.88212 19.3871 8.88212 20.037 8.88212 20.6865C11.7176 20.6865 13.9836 20.6865 16.8191 20.6865ZM2.55969 24.206L13.9686 24.2082L16.2562 21.382H8.04757V12.2357H13.6266V9.44653H5.85489L2.55969 13.4881V24.206ZM0 11.2913V21.9419L1.86418 24.2056V13.2403L5.52488 8.75139H13.7657L12.153 6.802H3.66071L0 11.2913Z" fill="#FEFEFE"/>
<path fill-rule="evenodd" clip-rule="evenodd" d="M22.5004 13.7087V3.05806L20.6366 0.794362V11.7597L16.9759 16.2486H8.73474L10.3474 18.198H18.8401L22.5004 13.7087ZM19.9411 0.793988L8.53218 0.791748L6.24456 3.61791H14.4532V12.9033H8.87415V15.5534H16.6455L19.9411 11.5119V0.793988ZM5.68172 4.31343L7.29401 6.26281H13.6187C13.6187 5.61289 13.6187 4.96297 13.6187 4.31343C10.7832 4.31343 8.51723 4.31343 5.68172 4.31343Z" fill="#FEFEFE"/>
</svg>
